<svg xmlns:xlink="http://www.w3.org/1999/xlink" viewBox="0 0 73 73" fill="none" xmlns="http://www.w3.org/2000/svg" class="" width="72"  height="72" ><path d="M30.361 15.557c.76-1.171.597-2.635 1.412-3.74 1.295-1.756 3.067-2.878 5.014-3.72.969-.417 1.933-.047 2.765.547.827.59 1.6 1.256 2.447 1.81 1.032.677.914 1.742.966 2.71.052.98.405.795 1.002.456 2.619-1.502 5.367-2.147 8.328-1.124 2.434.841 4.044 3.497 4.2 6.475.148 2.863-1.004 5.176-3.04 6.915-1.71 1.462-3.876 2.268-6.2 2.414-.156.01-.347-.052-.462.017-.582.348-1.692.023-1.268 1.539.346 1.237-.113 2.687-.118 4.042-.007 2.324-.384 4.648.073 6.98.354 1.803.043 2.33-1.74 2.524-1.727.186-3.427.59-5.211.498-.84-.043-1.817.256-2.713.358-2.518.29-5.106.316-7.317-1.136-1.013-.665-.822-2.1-.723-3.161.17-1.825-.441-3.543-.42-5.337.012-.938-.384-1.883-.365-2.821.016-.825-.32-1.186-1.007-1.292-3.84-.587-6.086-3.368-8.078-6.227-1.018-1.462-.954-3.42-.32-5.28 1.122-3.28 4.15-5.698 7.682-5.804 1.768-.052 3.319.57 4.537 1.914.151.168.358.285.559.441l-.003.002zm.276.458l-.05.08.022.005.03-.085h-.002z" fill="#3592FF"></path><path d="M31.319 45.024c2.819-.189 5.815-.413 8.813-.573.917-.05 1.836.005 2.756-.12 1.027-.14 1.989-.528 3.052-.601 1.09-.076 1.551-.997 1.513-2.065-.059-1.634-.117-3.27-.264-4.896-.06-.69-.514-1.29-.396-2.077.08-.53.144-.64.667-.605.818.056 1.61.223 2.414.353 2.833.457 5.7.787 8.545.995 2.534.186 4.841 1.33 7.373 1.31.429-.002.86.06 1.287.038.754-.038 1.303.34 1.68.908.408.61-.05 1.173-.39 1.6-1.13 1.41-2.431 2.704-3.959 3.632-1.77 1.078-3.252 2.485-4.756 3.835-1.872 1.681-3.887 3.09-5.954 4.498-1.568 1.065-3.347 1.782-4.79 3.012-1.556 1.327-3.281 1.17-5.157.993-1.992-.187-4.005-.295-6.011-.42-.231-.014-.485-.021-.688-.118-1.2-.575-2.532-.448-3.76-.728-2.925-.672-5.952-.382-8.87-1.219-1.136-.325-2.54-.05-3.811-.236-3.152-.462-6.329-.787-9.41-1.617-.865-.233-1.7.066-2.548-.117-.467-.102-.412.429-.386.68.21 2.13-.015 4.284.372 6.403.066.367.007.7.537.683 2.096-.07 4.177.264 6.28.184 1.676-.063 3.288.597 4.98.632 4.283.087 8.361 1.275 12.47 2.336 1.254.323 2.616.394 3.92.44 1.57.057 3.149.154 4.747.003 1.14-.106 2.432.141 3.568.653.276.125.401.346.462.634.498 2.357-.285 2.826-2.691 2.454-2.402-.373-4.811-.835-7.272-.948-1.25-.059-2.541-.122-3.8-.2-1.737-.106-3.418-.505-5.14-.66-1.373-.125-2.726-.493-4.08-.778-1.135-.238-2.238-.488-3.438-.382-2.458.222-4.858-.45-7.285-.672-1.551-.141-2.961-.492-4.338-1.157-.337-.163-.768-.123-1.15-.205-.516-.108-1.19.386-1.539-.196-.47-.782-1.105-1.459-1.176-2.505-.102-1.506-.45-2.994-.535-4.514-.113-2.032.693-3.758 1.803-5.327.799-1.13 2.088-1.785 3.305-2.388 1.562-.773 3.095-1.572 4.56-2.517 1.193-.769 2.492-1.342 3.772-1.96a70.92 70.92 0 016.11-2.602c.914-.339 1.845-.648 2.788-.893.51-.132.84.092.7.714-.384 1.726.172 3.409.25 5.113.019.44.349.457.636.556 1.313.455 2.69.49 4.234.632v.005z" fill="#3592FF"></path><path d="M48.286 63.963c-.547-.084-1-.252-1.138-.773-.156-.582.214-.994.64-1.277 3.114-2.065 6.103-4.25 8.762-6.928 1.81-1.824 4.033-3.279 6.346-4.469 1.263-.65 2.111-1.855 3.486-2.331.582-.203.968-.132 1.353.287.448.49.11.91-.182 1.247-1.207 1.396-2.331 2.89-4.148 3.597-.316.123-.608.368-.851.615-1.478 1.497-3.296 2.527-4.974 3.753-1.756 1.282-3.623 2.42-5.252 3.89-1.037.933-2.119 1.869-3.547 2.208-.186.045-.363.132-.5.184l.005-.003z" fill="#3592FF"></path></svg>