<svg xmlns:xlink="http://www.w3.org/1999/xlink" viewBox="0 0 73 73" fill="none" xmlns="http://www.w3.org/2000/svg" class="" width="72"  height="72" ><path d="M24.75 61.701c-2.957-.115-5.915-.339-8.871-.313-2.663.023-5.333-.138-8.003.324-1.008.176-2.18.212-3.266-.346-.671-.345-.845-.825-.886-1.409-.165-2.378-.095-4.757-.041-7.14.037-1.674.044-3.4-.38-5.066-.174-.678.121-1.34.02-2.052-.287-1.983-.336-3.996-.747-5.971-.13-.621-.01-1.307.056-1.956.109-1.056.952-1.337 1.763-1.34 2.687-.013 5.267-.866 7.932-.953a47.672 47.672 0 015.128.111c1.661.126 1.753.192 1.857-1.378.042-.643.107-1.29.15-1.935.101-1.505-.17-2.974-.384-4.451-.139-.945-.045-1.891.097-2.829.091-.616 1.08-1.413 1.81-1.385 2.389.09 4.778-.065 7.171.15 1.384.125 2.79.113 4.189.232 1.028.088 1.19-.174 1.093-1.206-.278-2.902-.398-5.811-.501-8.723-.025-.72-.046-1.418.023-2.138.077-.81.652-.99 1.221-1.045.56-.055 1.185-.063 1.444.725.3.915 1.29.908 1.978 1.261.815.42 1.745.618 2.628.907 1.358.446 1.682 1.546.665 2.535-1.256 1.223-2.488 2.5-4.113 3.248-.359.165-.457.461-.446.758.041 1.032.02 2.067.192 3.098.072.427.256.483.573.56.535.13 1.06.036 1.589-.008 2.334-.192 4.642-.1 6.926.485.772.197 1.598.01 2.41.142.494.08 1.049.086 1.42.357.709.516 1.707.253 2.313 1.014.334.418.561.832.52 1.355-.184 2.395-.37 4.79-.578 7.183-.146 1.667.078 1.957 1.705 1.998 2.366.06 4.727.122 7.097-.06 1.472-.111 2.966.097 4.452.123.617.01 1.242-.037 1.852-.133 1.094-.174 1.829.202 2.206 1.259.322.904.441 1.847 1.195 2.61.34.345.332 1.215.223 1.798-.251 1.332-.203 2.687-.195 4.003.012 1.858-.33 3.665-.39 5.509-.09 2.745.082 5.511-.331 8.234-.277 1.83-1.213 2.764-3.338 2.725-2.205-.04-4.406-.394-6.61-.406-2.734-.015-5.46-.41-8.196-.17-1.066.094-2.109-.18-3.18-.07-1.17.122-2.353.102-3.532.147-.776.029-1.513-.386-2.31-.196-.172.04-.429-.08-.333-.321.225-.566-.064-1.153.062-1.676.348-1.458.316-2.934.187-4.38-.116-1.312-.002-2.69-.697-3.935-.27-.486-.522-.8-1.059-.937-.783-.198-1.582.085-2.32-.032-2.063-.323-4.072.266-6.112.21-.993-.027-1.407.594-1.408 1.681-.001 2.75-.039 5.502-.088 8.252-.016.851-.363 1.301-1.35 1.206-1.488-.146-2.99-.14-4.488-.198l.001-.04.006-.002zm10.451-23.695c.988.145 1.936-.22 2.677-.682.895-.556 1.779-1.212 2.048-2.523.288-1.399.098-2.742-.245-3.974-.405-1.45-1.349-2.733-2.967-3.22-1.855-.559-3.455-.08-4.963 1.088-2.106 1.632-2.862 3.743-1.914 6.203.28.726.722 1.439 1.405 2.028 1.209 1.045 2.642.729 3.96 1.078v.002z" fill="#FFA03A"></path></svg>