<svg xmlns:xlink="http://www.w3.org/1999/xlink" viewBox="0 0 73 73" fill="none" xmlns="http://www.w3.org/2000/svg" class="" width="72"  height="72" ><path d="M57.207 42.868c-.27 1.998-.964 3.836-2.205 5.444-.451.584-.78 1.063-.04 1.709.377.33.67.847.817 1.335.514 1.699 1.702 2.988 2.54 4.484.635 1.133.89 2.52 1.89 3.414 1.192 1.064 2.163 2.28 3.025 3.596.43.653.917 1.311 1.149 2.04.377 1.188-.703 1.823-1.393 2.367-.664.523-1.384 1.06-2.181 1.46-1.615.81-2.683.696-3.762-.702-1.18-1.53-2.467-3.02-3.382-4.703-.982-1.81-2.052-3.577-3.021-5.399-.548-1.03-1.38-1.91-2.088-2.854-.134-.179-.35-.2-.542-.145-1.41.41-2.816.83-4.273 1.079-.356.06-.668.113-1.037.08-1.922-.173-3.809-.554-5.696-.932-1.162-.231-2.13-.894-3.047-1.565-2.19-1.603-4.08-3.571-5.18-6.043-.75-1.683-1.52-3.504-1.022-5.5.232-.93.141-1.9.087-2.848-.14-2.466.56-4.63 2.33-6.373.817-.806 1.478-1.745 2.34-2.52.638-.57 1.498-.715 2.073-1.23.633-.564 1.25-1.077 2.059-1.26 1.35-.304 2.544-1.003 3.865-1.406 2.185-.666 4.27-.4 6.35.247 1.17.363 2.496.34 3.438 1.336.892.945 1.91 1.78 2.728 2.784.646.794 1.578 1.29 2.09 2.204 1.045 1.866 1.653 3.872 1.738 5.988.053 1.312.57 2.576.346 3.913h.004zm-23.446.725c-.158 2.203.22 4.228 1.88 5.869 1.073 1.062 2.332 1.782 3.83 1.512 1.521-.276 3.06-.231 4.582-.49 1.345-.228 2.488-.787 3.6-1.487 1.578-.992 2.575-2.608 4.003-3.766.506-.41.674-.98.709-1.662.122-2.331-.144-4.604-.748-6.854-.723-2.687-2.62-4.12-5.163-4.793-1.975-.523-3.906.172-5.844.457-.429.064-.764.291-.724.879.051.75-.491 1.122-1.127 1.302-.366.104-.615.324-.912.52-1.268.842-1.921 2.196-2.868 3.298-.673.781-1.222 1.687-1.064 2.77.123.84-.149 1.624-.156 2.443l.002.002z" fill="#FFA03A"></path><path d="M7.573 58.073c-.17-2.224-.144-4.45-.159-6.674-.013-2.009-.33-4.027-.219-6.025.158-2.81-.074-5.625.17-8.419.096-1.102-.245-2.183.074-3.289.226-.78.51-1.268 1.376-1.44a6.308 6.308 0 012.063-.066c1.2.156 1.807 1.287 1.17 2.33-.402.66.18 1.07.233 1.585.098.942-.08 1.84-.189 2.718-.173 1.393.31 2.775-.165 4.184-.316.942-.164 2.02.2 2.99.21.562-.145 1.028-.14 1.544.012 1.705-.164 3.402-.168 5.11-.004 2.192.588 4.305.663 6.478.038 1.112.11 2.223.123 3.336.004.342-.003.628.416.58 2.16-.247 4.075.868 6.152 1.078a26 26 0 006.778-.177c.352-.055.724-.005 1.086.024 1.988.164 3.998-.017 5.974.361.866.166 1.721-.36 2.553-.128 2.144.6 4.29.02 6.416-.025 1.6-.033 3.255.008 4.864-.349 1.21-.268 2.459.82 2.609 2.143.142 1.262-.769 2.36-2.102 2.297-1.754-.083-3.455.33-5.186.37-1.615.036-3.153-.542-4.757-.681-.886-.078-1.707.113-2.548.222-1.554.2-3.094.503-4.643.74-.32.05-.654 0-.982-.006-1.568-.04-3.138-.153-4.703-.1-1.483.05-2.938-.201-4.41-.245-1.742-.053-3.469-.307-5.22-.334-1.459-.02-2.944-.054-4.373-.274-2.07-.317-2.357-.93-2.233-2.75.086-1.258-.528-2.413-.595-3.677-.06-1.142-.284-2.276-.13-3.431h.002zM57.853 5.62c.698-.162 1.01.333 1.356.85.673 1.005 1.001 2.075 1.095 3.295.08 1.022.428 2.03.71 3.03.348 1.235-.738 2.575-1.957 2.206-.749-.227-1.598.066-2.268-.517-.235-.204-.343.088-.483.288-1.975 2.806-3.273 6.036-5.482 8.7-.809.977-1.663 1.34-2.929 1.063-1.9-.416-3.669-1.256-5.59-1.584-1.976-.338-3.762-1.264-5.642-1.901-1.819-.615-2.36-.61-3.617.89-.94 1.12-1.754 2.348-2.706 3.458-.993 1.157-2.088 2.217-3.245 3.223-1.33 1.157-2.32 2.617-3.147 4.185-.47.892-1.015 1.742-1.912 2.312-.564.357-1.04.845-1.745.25-1.036-.875-1.437-1.82-.93-2.641a36.679 36.679 0 013.842-5.162c1.267-1.42 2.7-2.716 3.653-4.425.481-.863 1.416-1.42 2.176-2.045 1.155-.948 1.951-2.22 3.13-3.125.304-.234.603-.476.965-.407 1.222.232 2.497.009 3.695.504.799.33 1.68.214 2.53.28 2.4.183 4.725.644 6.775 2.054.9.62 1.43.397 1.981-.539 1.025-1.745 2.097-3.453 3.436-4.991.75-.863 1.183-1.972 2.053-2.762.254-.232.238-.438-.18-.515-.744-.135-1.474-.416-2.218-.438-.728-.02-1.058-.4-1.145-.968-.088-.581-.002-1.205.678-1.488.956-.4 1.882-.874 2.825-1.301 1.094-.495 2.11-1.18 3.229-1.655.34-.143.656-.322 1.07-.125h-.003z" fill="#FFA03A"></path><path d="M18.045 44.961c1.18.34 2.742.199 4.212.694.782.263 1.171.745 1.159 1.584-.038 2.48.187 4.953-.016 7.443-.112 1.36.03 2.757-.058 4.134-.04.616-.19 1.223-.31 1.832-.076.388-.377.5-.71.693-1.377.798-2.877.573-4.338.665-1.378.086-2.362-.53-2.537-2.03-.27-2.303-.235-4.587-.308-6.886-.068-2.16.291-4.283.276-6.432-.006-1.056.882-1.664 2.63-1.693v-.004zM30.866 61.398c-1.124.163-2.207-.383-3.37-.24-.653.078-1.23-.993-1.363-2.059-.219-1.758.348-3.432.523-5.145.07-.689.841-1.07 1.551-.885 1.626.432 3.285.43 4.938.557 1.066.082 1.928 1.661 1.765 3.105-.111.982-.133 1.964-.122 2.95.012 1.352-.86 2.115-2.24 1.944-.553-.069-1.106-.148-1.683-.227zM47.469 59.29c0 .048.013.28-.008.51-.13 1.387-.377 1.773-1.758 1.789-1.986.023-3.974.682-5.967-.03-1.029-.366-1.369-.9-1.003-1.937.138-.39.204-.707-.019-1.115-.437-.806.067-1.532.99-1.481 1.887.103 3.765.143 5.658-.068 1.798-.2 2.255.35 2.105 2.33l.002.003zM41.621 49.526c-1.114-.051-1.644-.731-2.093-1.991-1.053-2.946-.74-6.023-1.07-9.036-.124-1.117.547-2.028 1.572-2.41 2.417-.906 4.827-1.17 7.352-.306.913.313 1.273.853 1.283 1.62.036 2.716.16 5.438-.194 8.151-.206 1.586-.71 2.835-2.5 3.159-1.407.255-2.716 1.012-4.35.813z" fill="#FFA03A"></path></svg>