<svg xmlns:xlink="http://www.w3.org/1999/xlink" viewBox="0 0 73 73" fill="none" xmlns="http://www.w3.org/2000/svg" class="" width="72"  height="72" ><g clip-path="url(#clip0_8340_12599)" fill="#3592FF"><path d="M59.056 60.882c-.642-.128-1.707-.133-2.553-.567-.764-.394-1.747-.91-1.249-2.287.365-1.009-.186-2.122-.133-3.235.09-1.906.22-3.817.18-5.745-.06-3.08.22-6.166.499-9.249.144-1.586.36-3.234.25-4.858-.141-2.122 1.092-4.42 2.79-5.11 2.186-.886 4.85 1.186 4.859 3.467.018 5.514-1.342 10.942-1.03 16.442.143 2.561-.174 5.067-.176 7.599 0 1.592-1.73 3.548-3.435 3.546l-.002-.003zM63.228 25.61c-.314.782.413 1.378.112 2.079-.41.95-2.553 1.581-3.911 1.115-1.331-.455-1.294-1.45-.996-2.558.418-1.55 1.598-2.785 1.757-4.462.05-.52.73-.666 1.284-.687.487-.019.854.18.926.657.2 1.332.841 2.572.83 3.855h-.002zM55.545 64.226c.09-.652.14-1.227.258-1.786.096-.456.354-.756.897-.584 1.134.36 2.26.219 3.39-.045.694-.162 1.298.267 1.322.79.05 1.12.605 2.504-.601 3.284-1.385.897-3.014.034-4.547.231-.89.112-.37-1.323-.72-1.89zM52.01 53.092c-.223-3.826-.926-7.627-2.002-11.237-1.009-3.39-1.126-6.861-1.9-10.253-.892-3.914-1.057-7.99-1.72-11.964-.27-1.606-.53-3.485-1.88-4.518-1.512-1.156-1.435-2.588-1.496-4.113-.03-.73-.11-1.462-.085-2.192.018-.69-.203-1.171-.921-1.176-.695-.003-1.515.21-1.595.971-.141 1.39-.714 2.756-.328 4.186.33 1.222-.327 1.506-1.35 1.387-.82-.096-1.66-.458-2.385.567-.428-1.928-.26-3.563-.404-5.173-.078-.857-.52-1.366-1.385-1.403-.735-.032-.98.412-1.267 1.089-.676 1.584-.11 3.061.07 4.582.042.367.396.987-.286.974-1.413-.027-2.736.583-4.163.45-.82-.075-1.057-.44-1.137-1.174a33.201 33.201 0 00-.514-3.067c-.096-.463-.312-.967-.87-.985-.546-.016-.986.327-1.294.77-.35.497-.509 1.085-.23 1.636.517 1.025.2 2.173.568 3.211.197.554-.043.825-.589.762-1.222-.142-2.407.098-3.583.346-.73.154-.844-.203-1.017-.794-.336-1.142-.181-2.374-.698-3.477-.247-.527-.388-1.123-1.136-1.104-.794.018-.975.567-1.185 1.219-.41 1.275.053 2.49.098 3.73.016.434.44 1.009-.186 1.248-.868.33-1.672.895-2.652.868-.088 0-.24-.21-.245-.33-.045-1.15-.822-2.146-.679-3.344.083-.7-.063-1.376-.694-1.807-.448-.307-.887-.19-1.294.149-.61.506-.626 1.147-.504 1.855.192 1.126.33 2.26.522 3.387.139.806-.154 1.227-.945 1.504-1.858.647-2.132 1.256-1.722 3.13.447 2.056.735 4.14 1.198 6.201.535 2.388.676 4.862 1.131 7.295.772 4.127 1.616 8.23 2.572 12.313.748 3.197 1.406 6.419 2.074 9.635.442 2.13 2.239 3.408 4.209 3.024 2.133-.412 4.273-.974 6.424-1.06 3.325-.132 6.613-.614 9.89-1.016 4.263-.522 8.461-1.571 12.68-2.434 2.152-.439 3.033-1.693 2.906-3.868zM15.959 29.206a1.332 1.332 0 01-.575-2.532c1.224-.583 3.373-1.225 4.403-1.387.538-.085 1.539-.15 2.601-.216.847-.053 1.723-.109 2.207-.167.533-.064 1.041-.115 1.576-.165a94.32 94.32 0 002.223-.235c.706-.082 1.46-.332 2.186-.575.903-.298 1.755-.58 2.622-.615.703-.026 1.164-.122 1.699-.234.373-.077.793-.165 1.313-.232.47-.06.894-.146 1.301-.229.605-.122 1.13-.231 1.654-.218.386.008.644.077.854.15a2.45 2.45 0 00.21-.06 1.332 1.332 0 01.783 2.546c-.86.266-1.315.218-1.81.048-.019-.006-.035-.014-.056-.019h-.04c-.22-.005-.634.077-1.062.165-.434.088-.927.19-1.496.264-.418.053-.754.122-1.11.197-.597.125-1.215.253-2.138.287-.493.019-1.172.242-1.888.482-.815.269-1.736.575-2.71.69-.935.111-1.65.18-2.284.24-.54.053-1.01.095-1.51.156-.562.07-1.435.125-2.361.184-.91.059-1.941.122-2.354.189-.727.114-2.63.666-3.674 1.16a1.33 1.33 0 01-.572.131l.008-.005zm.86 8.037a1.331 1.331 0 01.995-1.597c.277-.064.602-.15.94-.237.86-.224 1.75-.455 2.404-.516.69-.064 2.3-.21 2.95-.341.128-.027.256-.061.402-.104.564-.16 1.265-.357 2.726-.288.99.046 1.816-.125 2.482-.263.338-.072.633-.13.918-.16.415-.043.833-.016 1.275.01.472.03.959.06 1.4-.005.253-.04 1.084-.401 1.688-.665 1.39-.607 2.828-1.233 3.93-1.262.52-.013.91-.178 1.366-.373.514-.218 1.097-.463 1.834-.463a1.33 1.33 0 110 2.662c-.197 0-.46.112-.796.253-.551.235-1.31.554-2.332.58-.583.017-2 .634-2.937 1.042-1.102.481-1.807.78-2.374.862-.711.101-1.393.061-1.941.027-.333-.022-.644-.04-.847-.019a8.167 8.167 0 00-.641.117c-.77.16-1.821.378-3.147.317-1.03-.048-1.424.064-1.88.192-.175.05-.373.106-.599.151-.788.16-2.377.304-3.232.384-.44.04-1.291.263-1.978.442-.362.093-.71.184-1.006.253a1.334 1.334 0 01-1.6-.996v-.003zm27.12 6.1c-.593.143-1.131.106-1.648.069-.236-.016-.463-.032-.7-.032-.24.005-1.038.24-1.515.38-.788.232-1.53.453-2.132.498-.423.032-1.52.395-2.172.613-.722.24-1.113.365-1.417.41-.128.019-.684.146-1.129.247-1.92.44-2.928.647-3.471.647-.647 0-2.857.283-3.198.368-.407.106-1.003.112-2.27.1-.448-.002-.911-.007-1.26 0-.585.017-2.164.432-3.099.722a1.337 1.337 0 01-1.667-.879 1.328 1.328 0 01.88-1.663c.433-.133 2.656-.804 3.809-.839.397-.01.886-.008 1.358-.002.548.005 1.37.01 1.608-.024.617-.15 3.035-.445 3.836-.445.38-.01 2.069-.397 2.878-.58.735-.168 1.126-.256 1.345-.288.12-.024.604-.184.955-.3 1.166-.387 2.114-.685 2.806-.738.322-.024 1.023-.232 1.584-.397.89-.263 1.659-.49 2.269-.49.332 0 .625.022.886.04.36.024.645.046.839 0a1.327 1.327 0 011.605.983 1.329 1.329 0 01-.982 1.605l.002-.005z" fill="#3592FF"></path></g><defs><clipPath id="clip0_8340_12599"><path fill="#fff" transform="translate(8.762 7.639)" d="M0 0h54.936v58.664H0z"></path></clipPath></defs></svg>