<svg xmlns:xlink="http://www.w3.org/1999/xlink" viewBox="0 0 73 73" fill="none" xmlns="http://www.w3.org/2000/svg" class="" width="72"  height="72" ><path d="M26.32 26.242c.1-.598.241-1.018.226-1.433-.063-1.73.83-3.107 1.625-4.513.308-.546.907-.854 1.355-1.287.889-.86 1.707-1.81 2.834-2.42.63-.342 1.278-.209 1.912-.333 1.879-.365 3.534.161 5.051 1.25.993.711 1.33 1.883 1.714 2.896.444 1.164.862 2.383 1.001 3.681.21 1.975.051 3.89-.332 5.826-.498 2.517-1.172 4.992-2.153 7.344-.575 1.378-1.268 2.729-1.9 4.097-.334.718-.662 1.431-1.158 2.075-1.204 1.56-2.857 1.696-4.614 1.614-.736-.036-1.486.14-2.196.117-1.168-.037-2.393-.084-3.463-.716-.617-.363-1.235-.723-1.963-.823-.202-.027-.432-.09-.505-.286-.357-.966-1.317-1.027-2.059-1.422-1.53-.816-3.343-1.099-4.623-2.363-.78-.771-1.507-1.584-1.977-2.638a9.367 9.367 0 00-2.155-3.022c-1.716-1.615-2.287-3.663-2.053-5.971.096-.956.202-1.845.785-2.727.75-1.138 1.823-1.731 2.956-2.169 2.032-.783 4.23-.744 6.307-.383a7.6 7.6 0 014.877 3.037c.115.157.26.293.51.567l-.002.002zM54.095 15.492c.587-.719 1.24-1.245 2.012-1.624 1.349-.664 2.729-.834 3.914.194 1.096.95 1.679 2.197 1.645 3.744-.041 1.947-.956 3.514-2.234 4.748-1.405 1.357-2.544 2.951-4.073 4.217-.9.746-1.706 1.612-2.705 2.28-.772.516-2.43.618-3.247.186-1.51-.8-2.13-2.099-2.33-3.68-.073-.574-.505-.95-.697-1.457-.791-2.095-1.196-4.24-1.038-6.488.076-1.084-.1-2.217.147-3.251.396-1.653 1.156-3.182 2.45-4.374.174-.16.355-.273.596-.3 1.465-.173 4.097 1.095 4.692 2.436.354.795.834 1.62.648 2.583-.041.214-.045.46.218.786h.002zM10.839 58.424c0-1.148.555-2.352.53-3.65-.016-.841-.036-1.687.088-2.535.112-.762.506-1.394.86-2.016.343-.605 1.152-.448 1.733-.519 1.54-.184 3.066-.37 4.653.004 1.576.373 1.84 1.088 1.605 2.658-.082.55-.308 1.053-.188 1.647.13.646-.336 1.198-.542 1.765-.524 1.443-.934 2.964-1.898 4.207-.654.842-1.65.98-2.619 1.03-.726.038-1.468-.043-2.193-.145-1.668-.235-1.984-.618-2.031-2.444l.002-.002zM59.438 49.574c-.104-.505-.27-1.157-.836-1.423-.946-.444-1.904-.733-2.94-.14-.43.247-.978.426-1.465.408-1.072-.037-2.01.434-2.97.727-1.53.467-2.98 1.201-4.462 1.82-.746.312-1.653.422-2.305.241-1.92-.534-3.965-.68-5.744-1.7-.34-.194-.612-.461-.991-.63-1.362-.607-2.866-.458-4.252-.9-.626-.2-1.28-.386-1.933-.292-2.236.322-4.396.966-6.524 1.698-1.017.35-2.05.888-2.251 2.028a106.418 106.418 0 01-1.202 5.828c-.27 1.157.27 1.954 1.369 2.364.987.37 1.93.862 2.907 1.262.49.203.962.434 1.547.405 1.107-.055 2.179.039 3.229.579 1.4.718 3.015.728 4.401 1.11.55-.178.93-.01 1.292.144.563.24 1.14.387 1.747.385 1.18-.004 2.303.36 3.457.516 1.456.198 2.852.573 4.328-.208 1.75-.928 3.447-1.943 5.202-2.856.17-.088.295-.265.436-.404 1.013-.992 1.938-2.105 3.063-2.945 1.177-.882 2.096-2 3.138-2.998.385-.369.876-.667 1.17-1.181.697-1.22.862-2.519.59-3.842v.004zM44.244 60.879c-.218.132-.62-.012-.858-.202-.28.07-.569.155-.806.253-.744.31-2.058-.232-2.645-.483-.587-.251-.125-.587 0-.732.126-.145.42.06 1.049.188.63.126 1.468 0 1.468 0l1.384-.431c.063-.625-.12-1.516-.428-2.185-.5-1.088-2.925-1.337-3.51-1.755-.585-.418-3.594-1.504-3.594-1.504l-.418-.836s.67-.252 1.12 0c.454.251 3.226 1.254 3.73 1.503.507.252 2.503.67 3.424 1.292.919.624.919 1.382 1.003 1.967.084.585-.5 2.676-.919 2.925z" fill="#3592FF"></path></svg>