<svg xmlns:xlink="http://www.w3.org/1999/xlink" viewBox="0 0 73 73" fill="none" xmlns="http://www.w3.org/2000/svg" class="" width="72"  height="72" ><path d="M45.648 40.915c.193-1.064-.395-2.306-.067-3.602.14-.556.352-.624.806-.571 2.88.342 5.786.233 8.652.062 2.391-.143 4.795-.119 7.184-.365 1.252-.13 2.494.192 3.641.684.577.248.687.967.678 1.555-.02 1.457.31 2.88.331 4.337.045 2.886.33 5.766.062 8.66-.093 1.015.104 2.054.095 3.083-.013 1.631-.045 3.265-.155 4.891-.067.984-.845 1.615-1.698 1.779-1.86.357-3.736.043-5.59.205-1.4.122-2.773.353-4.198.188-2.974-.348-5.983-.209-8.956-.483-1.996-.185-3.99-.078-5.983-.256-1.063-.096-2.175.336-3.287.258-1.72-.123-3.396.404-5.149.233-.968-.094-2.015-.042-3.026-.029-1.83.025-3.665-.154-5.492-.079-2.314.098-4.616-.236-6.94.014-1.89.203-3.814.329-5.729-.051-.968-.192-2.137-1.399-2.22-2.557-.11-1.553-.156-3.104-.394-4.657-.235-1.54-.086-3.14-.086-4.713 0-2.137.038-4.279-.422-6.384-.306-1.395-.17-2.8-.015-4.189.063-.56.514-.859 1.141-.89 1.995-.091 3.982-.307 5.984-.324 2.985-.027 5.976-.053 8.951-.271 1.688-.122 3.378-.103 5.06-.26.533-.048.713.104.779.687.191 1.697.104 3.403.249 5.098.056.637.914 1.203 1.706 1.16 2.3-.128 4.587-.118 6.894.141 1.853.209 3.741-.12 5.609-.4.907-.136 1.45-.452 1.573-1.35.064-.457.012-.93.012-1.602v-.002zM40.566 27.663c-1.887-.012-3.771.302-5.645.203-1.305-.07-2.613-.055-3.918-.145-1.31-.09-2.02.916-1.875 2.186.156 1.39.152 2.798.182 4.198.013.594-.48.585-.873.572-1.916-.06-3.818-.173-5.747.005-2.216.205-4.462.044-6.687.19-2.349.156-4.72-.097-7.049.453-.538.128-1.22.068-1.719-.163-.616-.284-.545-1.068-.568-1.647-.031-.784-.065-1.553-.268-2.314-.203-.762.019-1.551.05-2.296.062-1.445-.193-2.805-.42-4.196-.166-1.024 1.327-2.545 2.43-2.583 3.235-.115 6.466.282 9.7-.032 1.464-.14 2.892-.545 4.386-.519.586.012 1.3.512 1.756-.049.365-.449.12-1.13.08-1.71-.106-1.578-.198-3.16-.836-4.635-.626-1.443-.358-2.225 1.193-2.336 2.2-.158 4.37-.903 6.556-.642 1.929.23 3.832.1 5.748.147 1.466.036 2.935.126 4.395-.017.965-.094 1.933.008 2.902-.203.843-.184 1.74.034 2.484.402.707.352.57 1.271.644 1.95.22 2.012-.095 4.035.067 6.056.084 1.056.158 1.15 1.186 1.077 1.863-.132 3.736-.119 5.589-.31 2.233-.234 4.475-.023 6.715-.271.974-.107 2.063-.237 3.103.169 1.365.534 1.601.923 1.836 2.356.354 2.152.208 4.357.782 6.482.274 1.013-.104 2.042-.129 3.068-.009.425-.413.666-.867.688-1.073.055-2.147.184-3.218.154-2.473-.068-4.935.066-7.4.252-1.463.111-2.943-.036-4.401.096-1.471.133-2.944.087-4.406.218-.88.079-1.026-.353-1.032-1.002-.011-1.209-.075-2.429.06-3.625.193-1.724-.833-2.278-2.276-2.235-.834.024-1.67.004-2.507.004l-.003.004zM42.75 21.7c.661.295 1.29-.04 1.937.011.544.044.65-.255.62-.674-.07-.995-.166-1.988-.248-2.98-.03-.363-.162-.654-.573-.483-.553.23-1.093.03-1.637.032-2.533.007-5.062.144-7.602.017-.9-.046-1.834-.204-2.743-.021-.97.193-1.942.101-2.916.11-.838.008-1.78-.148-1.94 1.099-.109.85.16 1.718-.19 2.564-.114.274.21.41.474.436.369.038.74.062 1.108.087 1.782.116 3.552-.158 5.328-.187 2.793-.045 5.587-.01 8.38-.01h.002z" fill="#FFA03A"></path><path d="M36.353 30.314c.516.039 1.53.105 2.544.203.579.056.901.374.799 1.007-.015.092-.054.184-.052.276.03 1.758-.367 2.172 1.717 1.743.476-.097.916.072 1.372.119.49.05.618.338.51.791-.179.747-.119 1.493.047 2.232.141.628-.155.82-.702.692-.829-.196-1.62.056-2.377.272-.75.215-.508.981-.422 1.506.093.566.113 1.113.082 1.675-.019.34-.175.574-.522.476-.871-.246-1.7.013-2.54.156-1.056.178-1.27 0-1.555-1.11-.156-.61-.31-1.203-.255-1.84.035-.404-.16-.613-.588-.675-.7-.103-1.378-.359-2.108-.254-.645.094-.933-.173-.81-.859.078-.436-.021-.844-.194-1.269-.456-1.122-.12-1.637 1.086-1.735.52-.043 1.046-.041 1.571-.053.455-.009.788-.08.682-.695-.073-.427-.008-.874-.036-1.313-.081-1.299-.087-1.297 1.753-1.344l-.002-.002z" fill="#FFA03A"></path></svg>