<svg viewBox="0 0 33 50" xmlns:xlink="http://www.w3.org/1999/xlink" width="33" height="50" fill="none" xmlns="http://www.w3.org/2000/svg" class=""><path d="M18.022 32.586c-.608-.276-3.205-.608-3.647-.331-.277.165-.277.497-.221.718.276 1.327 1.989 3.151 2.541 3.815-.939 2.1-4.2 6.744-9.504 9.785-.663.386-3.703 1.603-3.703 2.377.056.774 3.371.663 3.813.608 3.371-.221 7.681-3.428 9.616-5.473 1.492 1.548 5.747 4.643 8.123 5.528.663.276.995.387 1.492.387 1.658 0 3.592-.885 4.587-1.824.773-.774.607-1.438-.056-1.548-4.863-.83-9.726-4.091-11.604-5.418.607-.663 1.436-1.935 1.878-2.709.663-1.16 1.16-1.88.719-2.708l.22-.332c1.05-1.935 1.438-4.257 1.548-6.081 1.824 0 2.653-.055 5.195-.11.994 0 1.602-.056 1.989-.553.774-.885 1.492-2.046 1.492-3.262 0-.387-.276-.94-.995-.94-.552 0-1.381.056-2.597.11-9.836.388-18.899.609-28.348.94-.498 0-.664.664-.498 1.051.387.663 1.603 1.935 2.597 2.432.664.332 1.713.443 2.708.443 5.029.055 8.455.11 13.097.055.11 1.16.22 2.432.608 3.648l-1.05-.608zM12.44 12.52c-2.598.553-3.98 3.04-3.537 5.528.552 2.93 3.979 4.755 5.802 4.865 4.145.277 6.466-1.382 7.35-4.865.442-1.769.166-3.925-1.16-5.14-1.548-1.328-3.98-1.549-5.858-1.549-.884 0-1.492.83-2.598 1.161zM4.371 7.765c.056.885 2.156 2.598 3.206 2.598 2.265.056 2.818.056 4.586.056 3.924 0 7.57.055 10.72.11.885 0 1.603 0 2.211-.11.719-.166 1.768-1.493 1.768-1.99 0-.498-2.652-1.604-5.526-1.604-2.265 0-3.813-.055-5.912-.055-3.04 0-5.195.055-6.687.055-.884 0-4.42.387-4.366.94zm9.671-7.74c-.663.277.553 3.428.829 3.926.332.663 1.492 1.99 2.708 2.266.94.221 2.1-.221 2.265-.884.221-.995-.11-2.377-.94-2.71-1.16-.552-1.436-.552-2.541-1.16-.663-.387-1.658-1.658-2.321-1.437zm-.497 15.369c.386-.553 1.326-.387 2.21-.387 1.547 0 2.487.719 2.376 2.156-.11 1.714-1.492 2.432-2.431 2.432-.884 0-2.818-.995-2.874-2.432-.055-.719.442-1.493.719-1.77z" fill="#F3F4F5"></path></svg>