<svg viewBox="0 0 46 45" xmlns:xlink="http://www.w3.org/1999/xlink" width="46" height="45" fill="none" xmlns="http://www.w3.org/2000/svg" class=""><path d="M44.404 17.982c-.788-.787-2.94-2.151-4.359-2.361-1.785-.263-3.308-.367-4.989-.315.42-2.466.84-5.928 1.103-8.551.21-.368.84-1.47.945-1.89.158-.524.158-.943 0-1.52-.262-.997-1.102-1.784-2.205-2.571-.63-.472-1.523-.63-2.048-.63-.788 0-3.939.42-5.252.525-.682.052-9.347.315-10.87.315-1.47 0-2.626-.315-3.308-.577-1.26-.473-1.733-.682-2.626.21-.683.681-1.365 1.94-1.733 2.99-.105.315-.157.63.263 1.154.63.787 1.785 1.521 3.256 2.099 1.575.63 2.363.524 3.833.577 2.153.105 7.457-.053 11.5-.158-.21 2.309-.21 5.404.053 8.184-3.57.053-7.825.105-9.19.158-1.47.052-8.192.472-10.082.472-1.891 0-2.574-.105-3.676-.42l-1.523-.472c-.578-.157-1.103-.105-1.576.367-.472.473-1.313 2.046-1.523 2.519-.21.472-.42 1.154-.052 1.626.472.577 1.785 1.521 2.678 2.046.84.525 2.206 1.05 3.308.997l10.713-.42c.315 0 1.313-.052 2.626-.052 0 .787.052 1.574.157 2.046.315 1.101.683 1.836 1.156 2.465-.42.315-.945.84-1.208 1.207-.315.42.052.997.158 1.207.105.21.105.314 0 .577-1.366 3.357-7.72 8.761-11.554 10.597-1.89.892-2.94 1.364-5.04 1.941.84.315 3.202 1.155 4.673 1.784 1.523.63 2.52.787 4.358.682 1.891-.105 3.414-.63 5.672-1.889 1.313-.734 3.203-2.675 4.831-4.511 2.573 1.311 5.41 3.252 7.772 4.879C32.955 44.843 33.533 45 34.951 45c1.68 0 4.149-1.207 4.464-2.886.158-.839-.262-2.78-1.365-3.672-1.628-1.311-3.099-1.993-5.41-2.78-1.68-.578-4.148-1.312-6.458-1.784.735-1.26.997-1.889 1.207-2.57a3.152 3.152 0 00-.105-1.994c-.21-.578-.997-1.102-1.733-1.47l-.42-.21c.946-.786 1.733-1.835 1.838-3.252l.158-2.256c1.68-.052 3.098-.052 3.78-.052 1.891 0 7.405.42 9.138.42.788 0 1.366.052 2.363-.263.84-.262 2.573-1.994 2.731-2.676.052-.262-.315-1.154-.735-1.573z" fill="#F3F4F5"></path></svg>