<svg xmlns:xlink="http://www.w3.org/1999/xlink" viewBox="0 0 73 73" fill="none" xmlns="http://www.w3.org/2000/svg" class="" width="72"  height="72" ><path d="M59.514 47.119c-.37 3.207-.36 6.447-1.087 9.633-.243 1.071-.263 2.26-.403 3.386-.13 1.058-.59 2.045-1.553 2.595-.77.442-1.684.51-2.576.452-1.038-.067-2.076-.172-3.112-.263-.13-.011-.277-.004-.385-.063-2.286-1.244-4.684-.88-7.13-.694-1.43.109-2.851.332-4.292.39-1.92.075-3.86.01-5.766.399-.832.17-1.68.212-2.537.016-.937-.212-1.886.089-2.827.116-1.744.052-3.476-.316-5.192-.118-1.297.15-2.543-.107-3.814-.119-1.935-.018-4.172-1.924-4.583-3.952-.488-2.406-.241-4.83-.306-7.244-.024-.859-.042-1.715-.226-2.54-.375-1.697-.312-3.378.012-5.06.332-1.717 1.756-2.656 3.468-2.553a21.12 21.12 0 003.41-.05c1.217-.124 2.415.034 3.613.038 1.384.004 2.742-.214 4.11-.21 3.913.014 7.79-.95 11.747-.233 1.433.26 2.991-.16 4.49.024 1.386.17 2.794.304 4.168.358 1.787.067 3.59.516 5.415 0 .89-.252 1.958-.376 2.816-.123 1.216.362 2.135 1.366 2.32 2.671.145 1.026.367 2.078.222 3.14l-.002.004zM42.62 22.694c-1.624 0-3.09.024-4.556-.01-.648-.015-.747.44-.696.835.113.884-.164 1.76.054 2.643.128.526-.103 1.038-.325 1.517-.182.393-.496.587-.939.599-.484.014-.68-.283-.858-.67-.39-.855-.464-1.774-.498-2.678-.022-.557-.018-1.11-.125-1.662-.239-1.258-.245-1.28-1.502-.88-1.007.32-2.013.433-3.077.439-.712.004-1.435.365-2.185.46-1.79.23-3.311-.136-4.345-1.773-.224-.352-.574-.627-.878-.924-1.566-1.538-1.46-3.991-.048-5.715 1.115-1.363 2.409-2.215 4.065-2.662 1.552-.419 3.104-.239 4.649-.063 1.06.12 2.048.522 3.038.95.602.258 1.155.537 1.491 1.035.44.653.866.552 1.232.087 1.238-1.578 3.067-1.86 4.824-2.329 1.064-.283 2.047-.815 3.158-.989 1.044-.164 2.09-.249 3.114-.049.816.16 1.43.644 1.765 1.522.455 1.187 1.185 2.29 1.157 3.61-.047 2.185-1.334 3.54-3.088 4.651a23.5 23.5 0 01-2.822 1.544c-.91.415-1.787.615-2.604.514l-.002-.002zm-1.274-2.99c.593.242 1.062-.049 1.52-.134 2.027-.373 3.935-1.046 5.373-2.645.91-1.012.464-2.565-.882-2.681-.993-.087-1.944-.388-2.958-.378-2.762.028-4.221 1.712-5.03 3.883.931-.298 1.863-.508 2.715-.893.907-.412 1.874-.584 2.801-.896.41-.136.862-.318 1.12.204.256.518.353 1.065-.12 1.546-.43.439-1 .587-1.557.79-.985.358-2.094.442-2.982 1.2v.005zm-9.72.386c-1.032-.257-2.123-.462-3.167-.81-.98-.327-1.985-.673-2.135-1.993-.1-.862.452-1.574 1.26-1.26 1.36.532 2.797.872 4.076 1.631.643.382 1.372.613 2.098.928-.02-.698-.593-.932-.85-1.38-1.131-1.974-4.864-2.818-6.845-1.687-1.59.908-1.135 2.436-1.1 3.684.026.907 1.3.998 2.088 1.326.204.085.455.056.68.095 1.36.243 2.66 0 3.897-.534h-.002zM33.572 38.06c-.255 1.638-.532 1.86-1.94 1.65-1.318-.198-2.625-.47-3.944-.657-1.457-.207-2.151-1.318-2.772-2.408-.392-.686-.884-1.39-.94-2.238-.108-1.682.355-2.47 2.124-2.867 2.43-.546 5.016.016 6.37 2.517.396.73 1.055 1.356.835 2.323-.038.168.05.5.348.502.279 0 .358-.259.405-.486.534-2.462 4.107-2.728 5.659-.97.257.29.524.948.943.072 1.368-2.855 3.652-4.47 6.758-5.043 1.248-.23 2.47-.34 3.743-.374 1.684-.043 2.493 1.441 1.542 3.26-1.082 2.069-2.729 3.533-4.901 4.356-1.716.648-3.51.959-5.356.844-.635-.04-1.311.139-1.867-.37-.176-.16-.354.014-.516.137-1.46 1.103-3.16 1.495-4.937 1.67-.429.042-.688-.138-.864-.498l-.696-1.42h.006zM16.42 27.052c-.44-.188-1.054-.32-1.507-.665-1.62-1.234-3.428-2.224-4.777-3.814-.476-.561-1.13-1.018-1.785-1.368-.688-.368-.93-.809-.615-1.495.245-.534 1.295-.8 1.825-.429 1.558 1.094 3.177 2.128 4.589 3.39 1.006.899 2.303 1.367 3.185 2.425.344.411.484.728.28 1.22-.203.49-.573.688-1.195.736zM67.155 17.186c-.045.439-.328.78-.694 1.085-1.35 1.125-2.718 2.224-3.993 3.442-.869.829-1.92 1.463-2.867 2.213-.53.419-.981.33-1.367-.142-.429-.528-.46-1.066.103-1.56 1.56-1.367 2.98-2.881 4.619-4.166.82-.645 1.495-1.483 2.465-1.926.928-.423 1.744.07 1.732 1.052l.002.002zM8.842 34.753c1.528-.02 2.705-.043 3.852-.411.65-.208 1.308-.077 1.927.17.56.224.79.718.7 1.275-.083.516-.385.69-1.008.783-1.728.253-3.484.18-5.21.584-.838.195-1.82.371-2.784-.062-.634-.286-.686-.676-.751-1.206-.07-.575.316-.668.718-.87.945-.476 1.935-.194 2.556-.26v-.003zM63.16 33.594c-.816-.008-1.587.306-2.408.326-.354.008-.708.01-1.061.02-.584.016-.989-.184-1.082-.755-.097-.598.156-.99.73-1.335 1.607-.97 3.377-.757 5.103-.82.427-.016.832-.064 1.247-.123.408-.058.906-.232 1.193.174.286.403.832.743.658 1.346-.166.578-.738.552-1.204.676-1.044.28-2.106.42-3.18.49h.005z" fill="#34CF72"></path></svg>