<svg xmlns:xlink="http://www.w3.org/1999/xlink" viewBox="0 0 73 73" fill="none" xmlns="http://www.w3.org/2000/svg" class="" width="72"  height="72" ><path d="M38.085 62.175c-4.126-.034-4.203-.86-4.352-4.632-.076-1.908-.44-3.804-.369-5.724.128-3.498-.474-6.968-.36-10.47.034-1.036-.106-2.095-.087-3.149.018-.884-.761-.729-1.264-.77-2.267-.19-4.532-.322-6.813-.29-2.744.036-5.352-.661-7.92-1.641-1.747-.666-3.505-1.285-5.15-2.166-3.002-1.611-5.22-3.974-6.585-7.103a20.958 20.958 0 01-1.329-4.31c-.162-.813-.059-1.653.221-2.277 1.317-2.932 2.609-5.916 6.086-7.065 1.238-.41 2.488-.543 3.723-.533 2.584.02 5.21.14 7.695.85 3.465.987 7.056 1.694 10.273 3.352 1.518.78 2.711 2.161 3.708 3.645.887 1.32 1.631 2.691 2.16 4.19.075.213.237.463.426.552.197.09.315-.16.416-.346 1.247-2.287 3.182-3.989 5.078-5.674 2-1.778 4.097-3.46 6.48-4.762 2.205-1.203 4.506-2.102 7.001-2.154 2.038-.041 3.996.698 5.936 1.327.425.137.852.27 1.275.42 2.254.805 3.536 2.429 3.846 4.771.24 1.828.076 3.625-.344 5.45-.4 1.751-.948 3.441-1.683 5.052-1 2.196-2.677 3.893-4.636 5.248-3.272 2.262-6.975 3.625-10.725 4.856-.688.226-1.417.466-2.125.459-2.4-.03-4.666.65-6.967 1.145-.8.171-1.818-.234-2.36.316-.528.536.01 1.469.056 2.223.236 3.762.337 7.537.978 11.27.321 1.874.48 3.777.77 5.661.303 1.957-.252 2.449-2.2 2.333-.285-.017-.572-.032-.857-.046l-.002-.008z" fill="#34CF72"></path></svg>