<svg xmlns:xlink="http://www.w3.org/1999/xlink" viewBox="0 0 73 73" fill="none" xmlns="http://www.w3.org/2000/svg" class="" width="72"  height="72" ><path d="M18.811 31.412c.327-1.621-.278-3.478 1.118-5.007.371-.407.784-.649 1.308-.721 3.485-.489 6.989-.375 10.5-.38 3.293-.005 6.592-.116 9.869.177 2.202.196 4.422.036 6.62.595 1.718.438 2.818 1.737 4.443 2.236.195.06.363.477.368.73.053 2.546.132 5.104-1.341 7.413-.25.392-.668.658-1.147.755-1.812.368-3.556.368-5-.94-.645-.58-.965-.623-1.639.197-2.01 2.44-4.577 3.516-7.507.62-.647-.64-1-.615-1.696-.16-2.423 1.58-4.572.818-6.326-1.072-.253-.274-.516-.542-.724-.842-.444-.644-.75-.388-1.178.048-1.875 1.907-3.464 2.48-5.158 1.704-1.378-.632-1.991-1.714-2.286-2.982-.17-.74-.15-1.52-.22-2.371h-.004z" fill="#3592FF"></path><path d="M38.87 48.559c0-.281-.01-.564 0-.845.158-3.342-.384-2.993-3.533-3.073-2.943-.073-3.1.247-3.167 3.032-.023 1.007-.11 2.016-.052 3.018.055.953-.505 1.246-1.35 1.183a91.98 91.98 0 00-9.132-.218c-.936.024-1.255-.491-1.231-1.224.079-2.515.2-5.026.295-7.538.036-.995.076-1.992.055-2.986-.013-.625.158-.954.918-1.031 1.439-.146 2.822-.487 3.903-1.474.184-.17.421-.295.582-.48.729-.825 1.448-.82 2.156.018 1.508 1.778 4.296 2.274 6.382 1.113.418-.232.705-.35 1.136.031 2.236 1.982 5.105 1.29 7.239.72.079-.023.147-.086.207-.141.61-.535.782-1.697 1.889-1.49.868.159 1.647.715 2.467 1.093.232.106.46.252.708.288 1.841.273 1.904.273 1.712 1.958-.176 1.546.216 3.041.313 4.561.129 2.02-.368 3.998-.352 6.006.005.644-.563.825-1.192.883-2.072.199-4.137-.21-6.215-.048-.726.056-1.479.005-2.22.036-1.066.044-1.794-.261-1.626-1.461.09-.634.016-1.285.016-1.931h.092zM31.63 10.313c-1.235 1.57-2.508 3.117-3.689 4.718-.686.932-1.615 1.293-2.506.797-.7-.388-.9-1.595-.274-2.36 1.034-1.263 2.215-2.425 3.212-3.707 1.08-1.391 1.999-2.89 3.033-4.312 1.654-2.282 3.224-2.227 5.51-.4 2.062 1.648 3.58 3.686 5.424 5.48 1.283 1.245.778 3.097-.75 3.16-1.41.057-2.51-.76-3.206-1.799-.484-.718-1.213-1.081-1.826-1.778-.334.588-.22 1.067-.102 1.51.573 2.13.407 4.3.584 6.449.14 1.703-.432 2.487-1.881 3.206-1.45.719-3.104.21-3.304-1.3-.239-1.812-.45-3.63-.389-5.485.045-1.39-.037-2.77.166-4.18h-.003zM67.843 27.975c-2.162 1.173-4.393 2.139-6.529 3.245-1.444.748-3.006 1.21-4.458 1.919-.608.297-1.234.055-1.568-.513-.32-.55-.489-1.16.108-1.665 1.16-.98 2.391-1.875 3.95-2.246 1.048-.249 1.845-.88 2.702-1.403 1.058-.642 2.407-.697 3.635-1.646-2.19-.176-3.835-1.207-5.715-1.609-1.542-.33-2.41-1.091-2.189-1.955.258-1.017 1.192-1.261 2.93-.808 2.762.716 5.635.786 8.449 1.197.931.136 1.889.29 2.749.625.805.312 1.262 2.175.902 3.172a1081.7 1081.7 0 01-3.222 8.82c-.313.84-1.076 1.075-1.907.857-.787-.205-1.113-.711-1.002-1.57.27-2.135.573-4.254 1.168-6.42h-.003zM10.373 24.781c1.373 1.39 2.478 2.655 4.175 3.357.947.391 1.515 1.134 1.194 2.163-.255.825-1.552 1.227-2.93.774-1.92-.629-3.801-1.396-5.298-2.722-.518-.458-1.097-.765-1.767-1.142-.242.576-.308 1.108-.082 1.645.44 1.048.26 2.151.316 3.224.047.91-.421 1.715-1.52 1.822-1.134.108-1.284-.72-1.62-1.525-1.021-2.44-.787-4.973-.903-7.485-.037-.81-.105-1.585-.716-2.262-.491-.547-.313-1.082.216-1.607 1.594-1.587 3.604-1.18 5.537-.992 2.33.225 4.34 1.29 6.37 2.27.382.184.821.273 1.232.404 1.033.331 1.126 1.137.886 1.88-.231.724-.857 1.183-1.817 1.002-1.018-.194-1.913-.787-3.273-.806zM64.545 57.364c.081-1.706.636-3.08.265-4.546-.302-1.196.679-2.176 2.028-2.067.679.053.881.474.942 1.084.216 2.19-.258 4.351-.292 6.529-.01.583-.242 1.198-.308 1.822-.084.789-1.328 1.316-2.349.992-2.314-.735-4.732-.51-7.094-.781-1.625-.187-3.214-.71-4.79-1.167-.797-.23-.962-1.048-.805-1.604.195-.69.858-1.22 1.758-1.24a14.87 14.87 0 013.508.354c.445.097 1.071.264 1.292-.208.197-.421-.397-.639-.718-.883-1.247-.944-2.48-1.9-3.767-2.8-.626-.438-.897-.941-.8-1.645.05-.359.116-.734.056-1.085-.15-.873-.024-1.57.965-1.986 1.066-.448 2.012-.039 2.636.573 1.402 1.38 2.938 2.679 3.74 4.513.458 1.046 1.376 1.85 2.27 2.606.453.383.776.847 1.465 1.535l-.002.005zm-5.393-.617c-.026-.029-.052-.077-.084-.08-.029 0-.063.044-.094.068.029.03.052.078.084.08.029 0 .063-.043.094-.068zM31.29 61.246c.202-1.49-.372-3.039.565-4.484.702-1.084 1.236-1.335 2.42-.772.615.296 1.228.581 1.79.988.821.593.908 1.215.682 2.107-.276 1.084-.305 2.22-.442 3.333-.023.196-.09.423.132.54.286.15.507-.073.689-.219.423-.343.863-.684 1.202-1.096.689-.835 1.38-.481 2.025-.026.687.484.868 1.236.337 1.82-1.718 1.887-2.925 4.16-5.242 5.606-2.486 1.554-2.552 1.733-4.743-.322-1.828-1.713-3.859-3.262-5.408-5.229-.615-.782-.894-1.636-.173-2.29.72-.655 1.704-.43 2.467.211.702.593 1.362 1.24 2.233 1.629.413.184.844.648 1.294.39.429-.247.279-.79.232-1.225-.035-.32-.037-.641-.058-.965l-.003.004zM1.568 57.65c.147-.515.234-1.354.623-2.054a19.872 19.872 0 002.067-5.464c.145-.67.524-1.18.887-1.715.381-.564.876-1.077 1.712-.707.845.373 1.279.997.99 1.87-.306.92-.68 1.818-1.035 2.723-.152.387-.373.888-.028 1.13.42.295.812-.172 1.08-.45 1.947-1.999 4.64-2.865 7.142-4.022.807-.373 1.465-.194 1.873.537.426.765.45 1.629-.497 1.968-2.867 1.026-4.67 3.378-7.236 4.76-.332.179-.795.365-.682.784.087.321.579.29.887.418.568.24 1.212.165 1.786.315.818.213 1.723.433 1.486 1.6-.229 1.12-1.131 1.4-2.036 1.243-1.991-.35-3.99-.254-5.987-.329-1.838-.068-3.082-1.011-3.032-2.613v.007z" fill="#3592FF"></path></svg>