<svg xmlns:xlink="http://www.w3.org/1999/xlink" viewBox="0 0 73 73" fill="none" xmlns="http://www.w3.org/2000/svg" class="" width="72"  height="72" ><path d="M50.795 18.87c.933-.634 1.728-1.153 2.498-1.705.79-.565 1.829-.53 2.605-.544 3.25-.053 6.445.602 9.214 2.394 1.758 1.14 2.617 2.964 2.852 5.098.305 2.803-.276 5.533-.54 8.286-.219 2.281-1.653 4.055-3.132 5.659-.958 1.038-1.893 2.118-2.96 3.09-1.534 1.397-3.38 1.818-5.188 2.482-2.32.852-4.76.77-7.161.985-1.184.108-1.749.694-1.756 2.05-.018 3.738-.781 7.414-.9 11.137-.046 1.406-.345 2.794-.214 4.214.105 1.162-.947 2.19-2.286 2.208-3.346.048-6.6.544-9.867 1.318-2.192.517-4.505.724-6.844.37-1.57-.239-3.212-.25-4.835-.08-.884.092-1.796-.069-2.695-.133-.354-.026-.728-.159-.893-.458-1-1.806-2.268-3.48-2.19-5.74.105-3.055.009-6.109.34-9.167.209-1.93-.099-3.913-.15-5.875-.013-.51-.404-.558-.7-.572-1.342-.064-2.613-.503-3.874-.846-1.128-.307-2.227-.942-3.143-1.732a22.053 22.053 0 00-1.057-.857c-2.03-1.542-3.435-3.396-3.787-6.066-.321-2.445.085-4.683.772-7.015 1.078-3.657 3.667-5.702 6.84-7.302 3.178-1.601 6.128-.978 9.122.65 1.353.738 2.459 1.786 3.798 2.505.188.101.338.386.57.18.11-.1.147-.357.115-.522-.44-2.197.46-4.246.9-6.289.478-2.217 1.951-4.03 4.065-5.181 1.67-.91 3.36-1.83 5.181-2.312 2.498-.661 5.03-1.394 7.654-1.222 1.537.101 2.428 1.328 3.322 2.415a33.462 33.462 0 012.107 2.821c1.126 1.717 1.9 3.592 2.222 5.756h-.005z" fill="#3592FF"></path></svg>