<svg xmlns:xlink="http://www.w3.org/1999/xlink" viewBox="0 0 73 73" fill="none" xmlns="http://www.w3.org/2000/svg" class="" width="72"  height="72" ><path d="M62.006 52.04c-.308 1.174-.25 2.395-.46 3.579-.194 1.096-.68 2.085-1.13 3.099-.609 1.374-1.494 2.562-2.46 3.645-1.186 1.33-2.529 2.495-4.259 3.234-1.83.78-3.572.512-5.352.134-1.036-.22-1.68-1.44-1.371-2.475.457-1.529 1.069-3.013 1.528-4.535.388-1.282.882-2.554 1.048-3.906.051-.42-.085-.522-.469-.555-.88-.078-1.745-.221-2.503-.741-.317-.217-.707-.255-1.086-.296-1.174-.124-2.264-.614-3.446-.744-.597-.067-1.171-.405-1.792-.492-1.486-.207-2.971-.427-4.46-.611-.96-.118-1.65-.762-1.848-1.719-.223-1.064-.072-1.99.559-2.924.738-1.091 1.486-2.15 2.362-3.145.547-.622.976-1.343 1.674-1.847.586-.424 1.328-.423 1.927-.828 1.49-1.007 3.266-1.312 4.96-1.616 1.832-.327 3.755-.31 5.594.26.245.075.474.086.724.102 1.327.089 2.536.525 3.58 1.37.175.14.323.352.523.422 1.704.597 2.845 1.963 3.909 3.243 1.286 1.547 2.213 3.391 2.198 5.55-.004.594.19 1.19.048 1.798l.002-.001zM28.707 16.244c1.19-.65 2.287-1.477 3.7-1.686 1.67-.246 3.448-.28 4.868.374 1.573.727 2.933 2.002 3.44 3.978.565 2.194-.366 3.994-1.337 5.66a7.805 7.805 0 01-3.926 3.333c-.027.01-.056.023-.082.035-.595.293-1.653-.179-1.722.968-.044.71-.168 1.414-.097 2.142.144 1.45.154 2.896-.04 4.362-.111.85.25 1.756.368 2.64.129.976-.348 1.47-1.294 1.246-.732-.173-1.326.046-1.977.295-.965.369-1.967.609-2.99.806-1.253.244-2.46.723-3.706 1.018-1.214.29-2.447.523-3.683.694-.715.1-1.173-.255-1.493-.99-.558-1.282-.466-2.7-.938-3.965-.96-2.574-.317-5.28-.803-7.88-.016-.087.006-.18.011-.27.072-1.48-.077-1.651-1.627-1.739-.627-.035-1.261-.065-1.885-.009-2.643.237-4.389-3.84-3.53-5.917 1.11-2.685 4.506-3.496 6.693-2.66.847.322.947.094 1.065-.709.21-1.43.417-2.877 1.36-4.11.866-1.134 3.157-2.066 4.566-1.855 2.345.352 3.512 1.364 5.058 4.236l.001.003zM47.325 35.479c-1.368.302-2.317-.622-3.23-1.593-.62-.657-.537-2.9.108-3.724.387-.493.756-1 1.178-1.461 2.077-2.257 5.643-3.213 8.105-1.294.39.303.68.239 1.084.079 3.18-1.258 6.099-3.02 8.974-4.822 1.25-.783 2.627-1.175 3.895-1.854.547-.291 1.204-.048 1.556.4.505.647 1.147 1.321.757 2.3-.533 1.339-1.826 1.51-2.95 1.883-2.434.81-4.934 1.418-7.313 2.404-.996.414-2.011.782-3.028 1.146-.321.116-.32.198-.204.53.486 1.385.089 3.464-1.404 4.346-.283.168-.444.436-.696.619-.56.41-1.16.609-1.87.705-1.6.221-3.173.678-4.962.33v.006zM67.72 19.283c-1.063-.274-1.923-.156-2.694-.084-1.126.106-2.261.052-3.391.206-1.561.212-3.159.152-4.741.208-1.865.066-3.73-.017-5.597.124-1.182.09-2.37.135-3.556.204-.83.05-1.164-.555-.82-1.312.14-.307.242-.632.38-.941.506-1.115 1.498-1.411 2.589-1.44 3.01-.08 6.02-.17 9.03-.155 1.12.006 2.267.008 3.374.34.573.172 1.167-.08 1.774-.026 1.8.162 3.614.201 5.42.315.631.04 1.24.217 1.77.586.313.216.446.519.383.892-.062.37-.28.66-.64.734-1.164.24-2.334.47-3.28.352l-.002-.003zM48.526 12.509c-.568-.025-1.14-.018-1.702-.085-.647-.076-1.077-.458-1.011-1.134.072-.73.547-.949 1.278-.871 2.417.255 4.891.235 7.245.758 1.96.434 3.948.46 5.905.804 1.07.188 2.221.275 3.356.3 1.8.037 3.588.491 5.385.74.67.092.975.446.908 1.09-.065.627-.588.75-1.072.756-1.246.012-2.485-.146-3.724-.297-1.76-.217-3.526-.387-5.284-.613-1.476-.19-2.938-.55-4.416-.617-1.362-.062-2.685-.37-4.032-.445-.962-.055-1.888-.285-2.838-.385l.002-.001z" fill="#34CF72"></path></svg>