<svg xmlns:xlink="http://www.w3.org/1999/xlink" xmlns="http://www.w3.org/2000/svg" viewBox="0 0 400 410" class="" width="400"  height="410" ><path d="M123.6 202.3q-.5-5.9-7.9-8.4c-12.4-3.5-25.7-11.4-40.1-24.7-3.5-3-5.4-4-6.9-3s-3 5.4-5.4 13.4c-6.4 27.2-12.9 31.2-32.7 24.7-15.8-5.4-25.7-16.8-25.7-31.2s3-13.4 12.9-22.8c20.3-17.8 33.1-31.2 38.6-39.6 9.4-13.4 8.9-13.4-5.4-13.4S14.9 89.4 11.4 78c-4-14.3 3.5-29.7 16.8-33.6 3-.5 5.4-1 7.9-.5l17.3 3.5q11.4 2.5 19.8-1C82.6 41.9 90 40 95 40s9.9 2 15.3 6.4c9.4 7.9 13.9 20.3 13.9 37.1s0 16.3-14.3 40.1c-7.4 13.4-6.9 13.9 3.5 21.3l17.8 12.4c5.9 4.9 9.4 7.4 10.4 7.4 2.5 0 6.9-9.9 14.3-29.7 3.5-9.4 7.9-20.3 13.9-32.2 13.9-27.2 13.4-26.7-8.4-28.2-21.8-2-29.2-10.4-30.7-36.6-1-12.4 2.5-20.8 10.9-25.2 9.9-4.9 22.3-3 37.1 5.9 5.4 3.5 10.4 5.4 13.9 6.4 9.9 2.5 23.3 19.3 25.7 31.2 5.4 26.2 4 50.5-4 73.2-5.4 15.3-4.5 15.8 14.8 29.2 14.3 9.9 23.7 17.8 27.7 23.7 4 6.4 4 13.4.5 20.8-5.4 10.4-12.4 14.8-21.3 13.4-8.9-1.5-22.3-9.4-40.6-23.7-9.4-7.9-10.4-7.9-12.9 2s-15.3 28.2-25.2 31.7c-10.4 2.5-32.2-12.9-33.6-24.2zm-7.4 195.9c-9.4-7.4-22.3-39.1-24.2-58.9-.5-10.4-2.5-13.4-11.9-18.8-12.4-7.4-15.3-21.3-4-29.7 2.5-2 3.5-4.5 4-6.9 1.5-7.4 5.9-13.4 13.4-16.8 21.8-11.4 37.1 1 36.6 30.2 0 17.8 2 27.7 11.4 48 4.5 11.4 6.4 11.9 18.8 9.9 6.4-1.5 13.4-1.5 21.3 0 15.8 2 18.8 1.5 40.1-2.5 35.6-7.9 44.5-8.4 60.9-6.4 17.3 2 34.6 2.5 51.9 1 39.6-2.5 52.4 3 52.4 24.7-.5 21.8-10.4 30.2-30.7 25.2-5.4-1.5-15.3-2-30.2-1.5-15.3.5-27.7 0-37.6-2q-17.3-3.5-46.5 4c-34.1 8.4-32.2 7.9-51.5 7.4-11.4-.5-20.3-.5-26.2 1-17.8 4-36.6 1.5-48-7.9zM266.6 183c4.5-23.7 5.4-40.6 3.5-51-1.5-8.4-2-28.2-1-59.9.5-10.4.5-16.3 0-18.8s-1.5-5.4-3.5-9.9c-9.4-17.8-4.9-33.6 10.9-39.6 17.3-5.9 37.6 3 41.1 17.3.5 3.5 1 9.4 1 18.8s-.5 17.3-1 24.2l-1.5 11.4h6.9c4.9 0 10.4-.5 16.3-2 34.6-7.4 52.9.5 55.4 24.2 2 18.3-4.9 25.7-22.3 25.2-34.6-2.5-52.9-3-54.9-1.5-.5.5-1 2.5-1 5.9s-1 9.4-2.5 18.3c-3.5 17.3-3.5 16.8 10.9 14.8 23.3-3.5 40.1-3.5 50.5 0 10.4 3.5 15.8 10.4 15.8 21.3 0 15.8-18.8 31.7-33.1 27.7-5.4-1.5-13.4-1.5-22.8.5-5.9 1.5-10.4 2-13.9 2.5-5.4.5-4.9 1-4.5 6.9 1.5 11.4 2 20.8.5 28.2-4 17.8-8.4 23.7-18.3 24.2-18.8 3-39.6-45-32.7-89z" fill="#F3F4F5"></path></svg>