<svg xmlns:xlink="http://www.w3.org/1999/xlink" viewBox="0 0 73 73" fill="none" xmlns="http://www.w3.org/2000/svg" class="" width="72"  height="72" ><path d="M10.241 37.43c.036-.77.071-1.562.11-2.355.036-.724.455-1.136 1.093-1.38a27.1 27.1 0 001.417-.577c1.693-.762 3.401-.746 5.202-.358 1.74.374 3.536.472 5.301.733.544.081 1.057.39 1.599.442 1.321.124 2.707.372 3.906-.396 1.305-.838 2.517-1.823 3.784-2.722.39-.277.858-.441 1.24-.725 1.469-1.088 2.905-2.22 4.38-3.297.475-.347 1.044-.56 1.555-.86 1.562-.929 3.06-1.988 4.686-2.775 1.812-.877 3.732-1.532 5.62-2.243 1.466-.552 2.282.545 2.351 1.735.007.114-.051.244-.013.34.772 1.964.379 4.02.51 6.037.143 2.183.508 4.35.697 6.531.08.928-.091 1.876-.063 2.812.055 1.765.215 3.526.252 5.291.043 2.107.123 4.224-.032 6.32-.188 2.553-.536 5.102-.956 7.627-.19 1.143-.395 2.366-1.559 3.112-.712.458-1.258.547-1.985.04-.364-.255-.786-.425-1.184-.63-1.917-.995-3.833-1.99-5.75-2.982-2.085-1.079-4.163-2.172-6.26-3.223-.62-.31-1.303-.49-1.95-.743-1.08-.422-2.156-.854-3.23-1.288-.425-.173-.703-.092-.845.386-.387 1.307-.94 2.586-1.142 3.92-.17 1.122.023 2.307.127 3.458.073.817.224 1.634.417 2.432.16.66.407 1.304.665 1.936.384.944.175 1.41-.813 1.591-1.525.28-3.052.58-4.589.76-.343.039-.88-.29-1.086-.608-.504-.777-.816-1.679-1.294-2.475-1.27-2.116-1.535-4.399-1.314-6.808.135-1.458.16-2.929.184-4.394.003-.163-.348-.486-.512-.473-1.321.12-2.635.34-3.957.453-1.373.116-2.778.32-4.12.131-.596-.083-1.241-.956-1.556-1.62-.353-.746-.671-.818-1.425-.704-1.635.245-3.282.667-4.955.234-.922-.238-1.214-.678-1.267-1.657-.05-.934-.208-1.863-.285-2.798-.17-2.049-.322-4.099-.477-6.149-.09-1.207.328-1.994 1.34-2.394.29-.114.66-.117.973-.058 1.722.324 3.429.782 5.208.373l.002-.003zM21.27 22.762c0-.66-.066-1.327.016-1.978.098-.779-.281-.968-.918-.951-.964.026-1.927.076-2.891.087a23.451 23.451 0 01-1.779-.07c-.907-.059-1.241-.492-1.203-1.404.03-.738.072-1.494-.049-2.215-.224-1.34.03-1.606 1.57-1.788 1.2-.141 2.422-.113 3.634-.158 1.256-.048 1.633-.341 1.63-1.6-.005-1.244-.204-2.484-.263-3.73-.01-.237.185-.629.378-.704.52-.203 1.086-.295 1.641-.39.666-.116 1.335-.221 2.007-.275 1.508-.119 2.325.116 2.27 1.78-.04 1.198.085 2.4.118 3.6.032 1.25.48 1.467 1.72 1.28 1.338-.204 2.755-.449 4.01.4.232.156.516.449.527.69.056 1.245.056 2.494.02 3.74-.015.551-.289.832-.94.818-1.303-.029-2.61.043-3.913.117-1.157.066-1.264.257-1.274 1.409a61.858 61.858 0 01-.168 3.916c-.045.622-.434.812-1.076.779-1.296-.067-2.6.01-3.9-.035-.802-.027-1.238-.44-1.143-1.343.068-.65.014-1.315.014-1.974h-.041.003zM59.615 54.809c.357-.537.618-.968.914-1.37.435-.588.925-.214 1.37-.018 2.104.926 4.019 2.15 5.628 3.816.535.554.635 1.13-.1 1.656-.17.12-.195.444-.363.562-.22.154-.598.353-.769.264-1.058-.559-2.1-1.16-3.104-1.813a30.65 30.65 0 01-2.598-1.897c-.372-.301-.623-.753-.979-1.2h.001zM68.23 41.035c-1.725 0-3.45.026-5.175-.02-.403-.01-.834-.203-1.185-.418-.199-.122-.432-.542-.362-.692.236-.507.519-1.244.934-1.365.924-.268 1.941-.307 2.915-.274 1.578.054 3.15.24 4.725.37.9.074.944.702.82 1.37-.107.58-.06 1.333-1.083 1.085-.503-.122-1.057-.02-1.588-.02v-.035l-.001-.001zM64.057 19.384c1.108.012 1.688.682 1.364 1.399-.354.776-.868 1.557-1.508 2.102-1.087.93-2.447 1.517-3.319 2.742-.144.202-.71.358-.863.243-.452-.343-.877-.788-1.146-1.286-.13-.24.002-.797.213-1.018.607-.629 1.309-1.166 1.984-1.726.667-.554 1.333-1.108 2.025-1.629.478-.36.996-.663 1.249-.829l.001.002z" fill="#FFA03A"></path></svg>