<svg xmlns:xlink="http://www.w3.org/1999/xlink" viewBox="0 0 73 73" fill="none" xmlns="http://www.w3.org/2000/svg" class="" width="72"  height="72" ><path d="M56.905 41.927c-.191 1.993-.806 3.846-1.97 5.495-.422.6-.727 1.089.026 1.697.384.31.693.81.856 1.288.57 1.661 1.79 2.888 2.672 4.334.67 1.095.972 2.46 1.993 3.302 1.215 1.001 2.218 2.164 3.118 3.431.447.628.953 1.26 1.209 1.973.416 1.16-.624 1.838-1.284 2.407-.635.549-1.325 1.113-2.096 1.545-1.562.874-2.618.81-3.735-.53-1.221-1.465-2.546-2.885-3.51-4.513-1.038-1.753-2.159-3.456-3.183-5.22-.58-.998-1.432-1.834-2.167-2.738-.138-.172-.351-.184-.54-.12-1.375.468-2.744.947-4.17 1.259-.35.076-.656.142-1.02.125-1.902-.087-3.776-.381-5.65-.672-1.155-.178-2.135-.793-3.064-1.417-2.22-1.493-4.158-3.361-5.335-5.764-.803-1.635-1.63-3.407-1.215-5.407.194-.934.068-1.89-.022-2.829-.23-2.44.378-4.615 2.058-6.422.775-.835 1.391-1.796 2.213-2.602.607-.594 1.449-.776 1.997-1.31.602-.59 1.19-1.125 1.982-1.342 1.32-.362 2.47-1.107 3.757-1.565 2.13-.757 4.196-.585 6.27-.036 1.168.309 2.474.226 3.44 1.172.915.898 1.95 1.682 2.794 2.64.668.76 1.605 1.209 2.145 2.094 1.1 1.803 1.774 3.766 1.938 5.86.102 1.299.658 2.529.489 3.865h.004zm-23.089 1.755c-.073 2.192.376 4.183 2.074 5.737 1.1 1.006 2.367 1.664 3.834 1.33 1.49-.341 3.007-.365 4.499-.688 1.317-.286 2.424-.89 3.494-1.635 1.517-1.053 2.44-2.7 3.804-3.911.483-.429.627-1.001.636-1.679.033-2.317-.315-4.559-.995-6.763-.814-2.632-2.739-3.97-5.271-4.525-1.967-.431-3.845.344-5.745.712-.42.082-.742.323-.68.903.079.741-.442 1.135-1.062 1.341-.357.12-.594.349-.88.557-1.218.89-1.811 2.262-2.703 3.397-.634.804-1.141 1.726-.945 2.794.153.828-.085 1.616-.062 2.428l.002.002z" fill="#3592FF"></path><path d="M8.484 59.138c-.252-2.2-.31-4.41-.408-6.616-.09-1.994-.478-3.983-.444-5.971.05-2.796-.285-5.58-.15-8.363.054-1.098-.323-2.156-.05-3.268.193-.785.455-1.281 1.303-1.49a6.206 6.206 0 012.034-.156c1.189.1 1.831 1.196 1.242 2.26-.372.673.217 1.054.289 1.563.133.93-.01 1.829-.084 2.706-.118 1.39.411 2.74-.004 4.159-.277.95-.087 2.012.308 2.958.23.55-.103 1.028-.079 1.54.077 1.691-.033 3.383.027 5.078.079 2.177.743 4.247.898 6.4.08 1.103.194 2.203.248 3.306.017.34.02.624.432.557 2.122-.34 4.054.682 6.111.799a25.552 25.552 0 006.682-.476c.345-.07.714-.038 1.072-.025 1.968.075 3.945-.193 5.91.095.86.126 1.684-.435 2.513-.24 2.14.5 4.234-.17 6.331-.309 1.577-.105 3.212-.136 4.787-.562 1.183-.32 2.456.705 2.654 2.011.188 1.246-.67 2.378-1.988 2.374-1.733-.005-3.396.48-5.102.595-1.593.108-3.132-.397-4.72-.465-.877-.038-1.68.189-2.507.333-1.525.268-3.033.637-4.553.94-.314.064-.645.03-.969.038-1.549.03-3.102-.012-4.645.109-1.461.116-2.906-.07-4.36-.048-1.721.025-3.435-.15-5.165-.1-1.44.043-2.906.076-4.325-.079-2.054-.223-2.36-.817-2.307-2.63.038-1.252-.612-2.372-.725-3.623-.103-1.13-.366-2.246-.258-3.4h.002zM56.044 4.995c.683-.19 1.008.287 1.37.784.702.968 1.066 2.015 1.205 3.222.116 1.01.498 1.996.814 2.975.39 1.21-.63 2.59-1.847 2.277-.748-.192-1.574.136-2.258-.413-.24-.192-.335.103-.466.308-1.842 2.872-3.002 6.135-5.081 8.878-.761 1.004-1.59 1.403-2.85 1.183-1.89-.328-3.667-1.084-5.576-1.324-1.962-.248-3.76-1.089-5.638-1.638-1.819-.53-2.352-.5-3.536 1.043-.886 1.154-1.643 2.41-2.54 3.553-.936 1.192-1.977 2.293-3.08 3.342-1.27 1.207-2.191 2.7-2.948 4.293-.43.906-.936 1.774-1.8 2.379-.542.38-.993.885-1.712.325-1.055-.822-1.487-1.742-1.018-2.58a36.765 36.765 0 013.597-5.293c1.197-1.466 2.562-2.815 3.438-4.553.443-.878 1.344-1.471 2.07-2.126 1.104-.992 1.842-2.29 2.971-3.24.291-.246.576-.5.937-.447 1.214.176 2.464-.102 3.665.337.8.292 1.666.138 2.507.166 2.376.075 4.686.43 6.763 1.738.912.576 1.426.33 1.934-.622.945-1.777 1.939-3.52 3.202-5.106.708-.89 1.093-2.01 1.922-2.832.242-.241.218-.445-.197-.503-.739-.1-1.47-.347-2.206-.336-.719.012-1.058-.351-1.166-.91-.108-.573-.047-1.196.613-1.508.929-.439 1.825-.95 2.739-1.416 1.061-.54 2.037-1.263 3.124-1.784.33-.158.635-.35 1.05-.172h-.002z" fill="#3592FF"></path><path d="M18.313 45.643c1.173.285 2.703.075 4.168.5.779.227 1.18.687 1.199 1.518.056 2.459.37 4.898.264 7.373-.058 1.352.134 2.729.099 4.097-.016.611-.142 1.22-.236 1.828-.06.388-.352.51-.672.718-1.325.85-2.809.694-4.242.85-1.352.146-2.343-.42-2.57-1.899-.353-2.269-.404-4.533-.563-6.806-.147-2.137.126-4.255.03-6.382-.046-1.046.805-1.688 2.523-1.793v-.004zM31.618 61.393c-1.102.211-2.191-.282-3.334-.09-.64.107-1.249-.93-1.42-1.981-.283-1.735.213-3.42.321-5.128.042-.686.79-1.099 1.497-.946 1.62.356 3.256.281 4.891.334 1.054.034 1.965 1.563 1.858 3.002-.072.979-.056 1.955-.01 2.931.064 1.342-.767 2.137-2.134 2.029-.549-.044-1.097-.098-1.67-.15zM47.96 58.6c.002.048.023.278.011.506-.075 1.386-.305 1.78-1.668 1.857-1.96.11-3.899.854-5.893.236-1.03-.32-1.386-.835-1.064-1.882.122-.393.175-.711-.06-1.107-.462-.782.008-1.526.92-1.516 1.868.019 3.724-.024 5.585-.318 1.769-.278 2.24.247 2.167 2.223l.002.002zM41.764 49.217c-1.099-.002-1.646-.652-2.136-1.881-1.148-2.873-.956-5.936-1.394-8.908-.164-1.101.462-2.033 1.457-2.458 2.348-1.004 4.712-1.372 7.231-.627.911.27 1.286.788 1.325 1.547.138 2.691.362 5.383.116 8.088-.143 1.58-.593 2.84-2.344 3.24-1.377.316-2.638 1.124-4.255.999z" fill="#3592FF"></path></svg>