<svg xmlns:xlink="http://www.w3.org/1999/xlink" viewBox="0 0 73 73" fill="none" xmlns="http://www.w3.org/2000/svg" class="" width="72"  height="72" ><path d="M12.262 66.903c-.538-.08-1.552.29-2.344-.478-.194-.189-.452-.326-.476-.604-.205-2.375-1.074-4.588-1.77-6.856-.447-1.461-.617-3.053-.865-4.588-.311-1.92-.854-3.839-1.268-5.758-.5-2.312-.985-4.65-1.035-7.024-.053-2.577-.892-5.051-1.072-7.612-.05-.732-.012-1.475-.351-2.198-.194-.411.019-.777.655-.952 3.281-.902 6.646-1.34 10.035-1.455 1.99-.065 3.994.225 5.998.01 1.968-.214 3.946-.364 5.905-.631.777-.106 1.011.047 1.186.78.397 1.658-.098 3.33.236 4.973.438 2.142.118 4.317.328 6.48.175 1.79.526 3.649.134 5.48-.038.18-.033.375-.007.557.375 2.611.306 5.235.375 7.86.072 2.662.089 5.349.464 8.002.12.851-.193 1.39-1.018 1.65-1.847.58-3.72 1.087-5.68 1.16-1.55.06-2.928.822-4.441.932-1.538.113-3.057.499-4.994.267l.005.005zM31.132 60.67c-.328-1.77-.275-3.726-.581-5.66-.342-2.162-.23-4.36-.105-6.544.067-1.177.263-2.396.026-3.525-.44-2.103 1.241-2.75 2.96-2.572 2.964.307 5.946.547 8.861 1.273.928.23 1.017.666 1.048 1.304.014.328-.091.662-.141.994-.495 3.2-1.053 6.391-1.459 9.6-.187 1.483-.564 2.94-.536 4.464.02.936-.351 1.893-.645 2.81-.12.376-.319.82-.993.753-2.164-.214-4.336-.355-6.502-.546-1.533-.135-2.005-.684-1.93-2.35h-.003zM49.316 34.955c-3.592.165-6.218-1.093-8.288-3.685-1.4-1.751-1.737-3.732-1.997-5.888-.226-1.87.511-3.406 1.077-4.945.902-2.449 2.458-4.672 5.234-5.206 2.567-.495 5.239-.685 7.797.229.982.35 1.993.63 2.889 1.24 2.513 1.718 3.166 4.348 3.831 7.088.756 3.117-.665 5.708-1.741 8.342-.55 1.345-2.14 2.02-3.556 2.311-1.807.373-3.61 1.236-5.248.516l.002-.002zM37.792 23.695c-.122.256-.242.828-.59 1.152-.342.317-.826.011-1.237-.215-.91-.505-1.91-.797-2.898-1.107-1.624-.511-2.081-1.862-1.08-3.111.184-.229.365-.415.655-.288a33.365 33.365 0 014.67 2.53c.288.186.555.403.483 1.041l-.003-.002zM47.534 37.977c0 .468-.122.828-.321 1.15-.81 1.307-1.645 2.597-2.448 3.91-.522.85-1.126.382-1.757.188-.72-.224-.584-.786-.414-1.186a15.942 15.942 0 012.366-3.915c.165-.202.393-.394.459-.627.199-.706.771-.856 1.319-.774.687.104.608.837.796 1.256v-.002zM68.198 17.53c.023.774-.292 1.207-1.027 1.27-1.506.131-2.893.706-4.307 1.175-.606.201-1.214.36-1.488-.442-.265-.774-.063-1.51.728-1.77a56.935 56.935 0 015.178-1.468c1.056-.242.717.783.918 1.233l-.002.003zM61.194 9.645c.927-.167.843.77 1.187 1.216.28.362.02.737-.319 1.063-1.02.98-1.918 2.08-2.945 3.06-.486.464-.834.412-1.271.163-.482-.276-1.084-.566-.864-1.274.208-.663.457-1.301 1.12-1.743.852-.57 1.843-1.04 2.171-2.18.12-.411.559-.284.918-.305h.003zM67.81 28.318c-1.592.084-3.098-.323-4.57-.853-1.014-.366-1.322-1.957-.584-2.756.23-.252.423-.2.69-.075 1.287.609 2.644 1.01 4.024 1.367.518.133.963.543 1.438.835.31.19.229.444.075.679-.262.398-.453.903-1.072.808v-.005zM39.589 17.326c-.034.935-.724 1.372-1.455 1.005a6.329 6.329 0 01-1.7-1.235c-.72-.731-1.648-1.254-2.453-1.906-.393-.319-.633-.722-.244-1.254.375-.513.735-.724 1.411-.443 1.652.688 3.022 1.708 4.09 3.136.174.234.267.525.35.697zM36.217 38.38c-.52-.065-1.098.106-1.282-.402-.25-.691.18-1.337.612-1.77 1.036-1.039 2.494-1.398 3.775-2.04.885-.444 1.005.542 1.373.952.376.419.191.95-.207 1.29-.394.336-.85.616-1.316.85-.969.487-2.139.425-2.955 1.12zM49.335 11.278c.317-1.087-.056-2.257.305-3.413.306-.973.948-.914 1.654-.878.934.047.68.66.55 1.217-.313 1.333.273 2.669-.025 4.013-.138.624-.204 1.195-1.061 1.118-.783-.07-1.26-.414-1.317-1.238-.018-.26-.068-.52-.108-.822l.002.003zM34.692 30.582c-1.094-.29-2.254.11-3.42-.223-.98-.282-.936-.926-.917-1.632.025-.935.644-.697 1.204-.579 1.34.28 2.661-.338 4.012-.072.628.123 1.2.175 1.143 1.034-.051.784-.383 1.27-1.206 1.346-.26.024-.518.08-.818.128l.002-.002zM54.689 37.818c.027-1.1 1-1.711 1.837-1.007 1.067.896 2.325 1.294 3.524 1.869.488.233 1.036.539.778 1.166-.244.59-.794 1.129-1.475.98-1.633-.358-3.015-1.282-4.366-2.23-.262-.183-.357-.473-.3-.778h.002zM53.073 43.036c-.02.26-.1.534-.05.78.129.67.136 1.245-.751 1.277-.814.03-1.595.036-1.67-1.132a25.045 25.045 0 01.02-3.471c.035-.457.245-.638.627-.575.351.057.659 0 .991-.072.588-.13.934.033.89.746-.05.813-.012 1.63-.012 2.445h-.045v.002zM43.876 12.75c-.104.97-.894.974-1.488 1.232-.586.253-.83-.127-1.012-.57-.425-1.04-.884-2.042-1.658-2.895-.696-.767-.142-1.396.453-1.872.633-.509 1.176.104 1.398.485.665 1.136 1.018 2.462 2.171 3.284.1.07.111.267.138.337h-.002zM64.305 36.054c-1.023-.337-2.063-.629-3.063-1.027-.577-.229-.566-.785-.283-1.245.251-.407.21-1.04 1.14-.898 1.362.208 2.307 1.24 3.613 1.502.527.107.41.532.197.901-.358.625-.944.681-1.604.767z" fill="#34CF72"></path><path d="M17.165 44.44c-.755.346-1.511.69-2.265 1.04-.866.405-1.572-.03-1.392-.966.265-1.373.297-2.803 1.015-4.08.815-1.454 1.194-3.125 2.172-4.502.173-.244.22-.71.689-.54.425.154.18.525.158.783-.115 1.45.007 2.92-.49 4.338-.204.583.229.933.907.744.842-.237 1.666-.132 2.482.02.988.185 1.343.833.854 1.7-1.114 1.975-1.691 4.28-3.511 5.833-.262.224-.417.693-.848.451-.386-.216-.373-.644-.285-1.048.27-1.218.1-2.505.718-3.669l-.204-.106v.002z" fill="#FFFFFF"></path></svg>