<svg xmlns:xlink="http://www.w3.org/1999/xlink" viewBox="0 0 73 73" fill="none" xmlns="http://www.w3.org/2000/svg" class="" width="72"  height="72" ><path d="M64.624 34.939c.075 2.801-.54 5.702-1.373 8.5-1.005 3.383-1.95 6.901-4.276 9.677-2.023 2.413-3.665 5.22-6.426 6.942a15.668 15.668 0 01-5.686 2.172c-1.341.227-2.662.566-4.044.594-3.182.064-4.635-1.611-4.358-4.974.213-2.56.159-5.125-.064-7.694-.3-3.483-.338-6.978-.274-10.475.014-.74-.123-1.484-.164-2.227-.03-.568-.404-.45-.757-.428-2.541.165-5.08.393-7.624.466-2.437.071-4.853.372-7.28.523-2.837.177-5.662.478-8.511.547-1.193.028-2.376.459-3.564.714-1.8.388-2.785-.329-2.787-2.115-.007-3.223.646-6.242 2.25-9.129 1.065-1.912 2.04-3.885 3.263-5.698 2.002-2.974 4.387-5.588 7.373-7.656 1.488-1.032 2.891-2.142 4.709-2.544 2.785-.618 5.586-.985 8.452-1.018 2.635-.03 5.177.561 7.763.826 2.392.244 4.69.753 6.86 1.706 2.654 1.167 5.122 2.71 7.488 4.378 3.012 2.12 5.203 5.04 7.215 8.063 1.138 1.709 1.192 3.796 1.542 5.76.173.963.332 1.933.27 3.09h.003z" fill="#FFA03A"></path></svg>