<svg xmlns:xlink="http://www.w3.org/1999/xlink" viewBox="0 0 73 73" fill="none" xmlns="http://www.w3.org/2000/svg" class="" width="72"  height="72" ><path d="M45.889 46.95c-1.79.127-3.604-.303-5.444.063-.929.185-1.934-.066-2.894.221-.384.115-.663-.154-.73-.519-.231-1.264-.573-2.505-.782-3.78-.135-.825-.038-1.856-.837-2.522a.935.935 0 01-.295-.517c-.423-2.463-2.46-3.268-4.322-4.287-2.019-1.104-4.177-1.271-6.375-.978-1.102.147-2.216.475-3.165 1.098-.736.485-1.587.674-2.37 1.008-.713.305-.977-.708-1.47-1.088-.259-.2-.423-.762-.351-1.102.247-1.179-.55-1.478-1.353-1.816-.27-.113-.556-.135-.795-.38-.635-.65-1.25-1.372-.859-2.285.366-.854 1.074-1.514 2.09-1.669 3.622-.55 7.187-1.444 10.835-1.83.656-.068 1.32-.122 1.993-.01 1.116.187 2.132-.388 3.216-.515 1.954-.225 3.86-.784 5.872-.647.742.05 1.496-.197 2.268.022.734.209 1.97 1.41 1.971 2.13.004 1.027-.633 1.598-1.546 1.94-.63.235-1.127.77-1.933.603-.294-.06-.617.324-.428.883.466 1.376.62 2.771-.04 4.171-.367.776-.143 1.68-.01 2.43.162.918.516 1.842.609 2.785.114 1.154.868 1.156 1.546.816.962-.482 2.007-.277 2.989-.63 1.226-.44 2.507-.77 3.802-1.033a25.366 25.366 0 011.915-.332c1.35-.157 1.291-1.18 1.492-1.955.187-.713.312-1.452.7-2.067.931-1.478 1.255-3.217 2.11-4.72.498-.877.09-1.659-.17-2.473a5.012 5.012 0 00-.587-1.235c-.796-1.176-.58-2.703-1.538-3.837-.688-.817-.652-1.959-.356-2.966.245-.833-.241-.915-.782-1.008-2.025-.35-4.012-.883-6.078-1.035-1.047-.079-1.765-1.875-1.194-2.742.235-.357.64-.367 1.06-.416 1.436-.163 2.698.57 4.078.72.857.095 1.73.137 2.582.302.336.064.597-.046.807-.286 1.246-1.428 2.887-2.182 4.635-2.795 1.198-.42 2.847.457 3.151 1.71.362 1.486-.106 2.917-.185 4.373-.014.266-.082.53-.12.795-.141.953-.608 1.633-1.617 1.747-.823.093-.938.638-.54 1.096.968 1.112 1.338 2.588 2.356 3.654.78.819 1.49 1.695 2.115 2.64.167.25.415.455.537.723.27.587.883 1.279.342 1.834-.477.486-1.325.665-2.051.432-.67-.215-1.253-.123-1.832.173-1.603.814-3.286 1.512-4.583 2.81-2.152 2.151-2.826 4.824-2.681 7.784.052 1.054.17 2.023.883 2.898.438.539-.181.98-.581.987-1.702.03-3.29.9-5.05.626l-.01.002z" fill="#34CF72"></path><path d="M30.751 21.573c.06 2.176-.605 2.659-2.497 3.127-2.082.515-4.227.638-6.293 1.323-1.45.481-2.99.793-4.49 1.179-1.084.28-2.287.163-3.433.352a1.212 1.212 0 01-1.301-.736c-.567-1.414-.945-2.886-1.257-4.378-.262-1.247-.624-2.47-.881-3.72-.203-.99-.348-1.99-.316-2.97.026-.797.706-1.306 1.454-1.618 2.786-1.162 5.69-1.709 8.696-1.946 1.912-.153 3.742-.911 5.681-1.074 1.373-.115 2.27.694 2.785 1.959.698 1.711.901 3.509 1.331 5.264.284 1.153.385 2.35.521 3.24v-.002zM12.674 33.425c-.75.195-1.425.597-2.298.273-.57-.211-.976.475-1.42.8-.82.604-1.436 1.37-1.68 2.388-.253 1.057-1.188 1.755-1.47 2.811a13.942 13.942 0 00-.474 3.789c.01 1.118.587 2.15.308 3.28-.113.454.108.973.472 1.27.413.339.694.75.833 1.215.462 1.579 1.995 2.142 2.962 3.234 1.162 1.313 2.693 2.092 4.21 2.795a18.58 18.58 0 003.54 1.243c1.386.326 2.69.82 4.003 1.352.983.396 2.083.416 3.147.358.93-.05 1.84-.312 2.78-.352.918-.039 1.153-.81 1.308-1.523.402-1.842 2.192-2.994 4.018-2.797 1.977.213 3.938.621 5.943.607.557-.004 1.259-.03 1.267.895.004.439.384.356.687.328.901-.082 1.802-.1 2.695.089.529.112.981.347.951.969-.028.587-.404.849-.985.935-.68.1-1.347.086-1.965-.185-.716-.316-.879.052-.981.635-.211 1.193.34 1.828 1.522 1.736.366-.028.742-.006 1.094-.087.56-.128 1.173-.398 1.382.41.255.986-.254 1.81-1.088 1.903-.505.056-.992-.054-1.486-.167-.62-.14-1.155-.145-1.293.752-.125.8-1.376 1.35-2.492 1.124a5.185 5.185 0 00-2.176.029 2.954 2.954 0 01-1.39-.047c-1.23-.352-2.521-.38-3.74-.842-.825-.314-1.502-.658-1.599-1.565-.078-.73-.529-.846-1.076-.873-1.56-.07-3.139.004-4.681-.203-1.539-.207-3.051-.647-4.557-1.051-2.38-.64-4.547-1.812-6.78-2.812-1.926-.863-3.89-1.735-5.546-3.022-1.074-.835-2.248-1.635-3.093-2.78-.432-.587-.553-1.287-.794-1.918-.776-2.041-.99-4.155-.988-6.387.002-3.216 1.828-5.287 3.66-7.467.511-.607 1.032-1.21 1.605-1.758 1.028-.979 2.413-1.333 3.68-1.801 1.092-.405 1.957.778 1.971 2.425l.014-.01v.002z" fill="#34CF72"></path><path d="M16.861 39.198c.873-.175 1.406-.89 2.116-1.321 1.985-1.203 3.982-2.442 6.441-2.287 2.259.143 4.402.772 6.375 1.87.95.53 1.402 1.603 1.97 2.458 1.352 2.031 2.082 4.37 1.942 6.825-.11 1.905-.9 3.614-2.627 4.666-.678.412-1.39.748-1.993 1.293-.426.384-1.03.434-1.6.497-1.084.118-2.17.237-3.25.396-.616.09-1.237-.068-1.744-.253-1.003-.368-2.093-.433-3.043-.938-1.78-.945-3.607-1.848-4.726-3.64-1.184-1.898-1.094-3.943-.738-6.065.188-1.12.805-2.055 1.014-3.141.032-.167.127-.316-.123-.372l-.014.01v.002zm9.448 8.92c1.438-.043 2.592-1.541 2.542-3.301-.028-1.016-2.027-2.84-3.065-2.797-1.116.044-2.908 1.876-2.847 2.907.136 2.299 1.15 3.26 3.368 3.192h.002zM70.655 39.547c-.165 2.973-.237 5.263-1.794 7.148-2.24 2.712-5.213 3.814-8.633 3.603-2.184-.135-4.27-.796-6.11-2.08a2.598 2.598 0 01-.893-1.049c-.744-1.589-1.134-3.211-1.25-5.015-.105-1.613.156-3.083.51-4.573.221-.93.803-1.664 1.545-2.353a14.78 14.78 0 013.026-2.196c1.36-.744 2.818-.829 4.248-.825.766.002 1.636.294 2.405.561 1.687.591 3.485 1.255 4.7 2.502 1.246 1.281 2.439 2.882 2.248 4.277h-.002zM60.38 44.301c.163.02.328.059.491.06 1.17.017 2.669-.989 2.81-1.88.225-1.411-.461-2.578-1.27-3.549-.615-.74-1.685-.348-2.572-.217-1.023.15-1.246 1.076-1.78 1.737-.916 1.137-.28 2.05.25 2.999.453.808 1.235.917 2.07.85h.002zM55.039 52.841c-.127 1.507-.362 3.007-.27 4.533.025.406.075.555.523.626.847.132 1.672.362 2.544.368.76.006 1.139.655.706 1.198-.64.803-.784 1.83-1.341 2.663-.97 1.448-1.683 3.073-2.993 4.285-.225.21-.414.489-.756.284-.303-.183-.265-.493-.223-.807.217-1.614.308-3.251.941-4.79.298-.726-.08-1.052-.768-.858-.593.166-1.184.158-1.778.209-.798.066-1.122-.386-.798-1.157.243-.579.509-1.158.84-1.691 1.014-1.62 1.173-3.572 2.056-5.237.195-.368.183-1.057.864-.886.688.17.455.78.453 1.26zM41.427 9.73c-.014-.737.086-1.398.549-2.05.368-.519.959-.744 1.253-.525.927.694 2.053.378 3.024.795.925.398 1.67.681 1.442 1.98-.127.718.692 1.217 1.253 1.537 1.03.585 1.476 1.444 1.727 2.524.103.442-.094.645-.408.786-.358.16-.623.123-.92-.271a27.918 27.918 0 00-2.302-2.67c-.351-.361-.953-.234-1.437-.333-1.104-.225-2.19-.569-3.347-.464-1.06.094-.798-.718-.832-1.312l-.002.002z" fill="#34CF72"></path></svg>