<svg viewBox="0 0 42 45" xmlns:xlink="http://www.w3.org/1999/xlink" width="42" height="45" fill="none" xmlns="http://www.w3.org/2000/svg" class=""><path d="M0 5.709h11.546C10.654 11.194 6.024 16.51.781 19.086v3.526c6.136-2.239 11.212-7.556 12.55-11.418.837 1.847 2.064 3.582 3.347 5.093 2.064 2.519 5.522 5.318 8.144 6.045v-3.638c-1.952-1.063-3.18-2.07-4.686-3.582-2.398-2.407-4.852-5.82-5.745-9.403H24.99V2.295H0v3.414zM4.685 45H35.7v-2.63H8.534v-4.982h26.719v-9.85H4.685v2.182h26.273v5.205H4.685V45zm26.217-21.1h3.849v-9.684H41.5V10.69h-6.75V0h-3.848v23.9z" fill="#F3F4F5"></path></svg>